WIPSHDC-New-Simplified-Sans-ExtraLight.ufo
<glyph name="uni4E1C" format="2">
  <advance width="1000"/>
  <unicode hex="4E1C"/>
  <note>
cid09521
</note>
  <outline>
    <contour>
      <point x="392" y="825" type="curve"/>
      <point x="362" y="830" type="line"/>
      <point x="308" y="654"/>
      <point x="226" y="456"/>
      <point x="149" y="317" type="curve"/>
      <point x="179" y="312" type="line"/>
      <point x="254" y="448"/>
      <point x="336" y="646"/>
    </contour>
    <contour>
      <point x="526" y="556" type="line"/>
      <point x="496" y="556" type="line"/>
      <point x="496" y="-18" type="line" smooth="yes"/>
      <point x="496" y="-32"/>
      <point x="493" y="-36"/>
      <point x="478" y="-37" type="curve" smooth="yes"/>
      <point x="461" y="-38"/>
      <point x="410" y="-38"/>
      <point x="346" y="-37" type="curve"/>
      <point x="351" y="-47"/>
      <point x="356" y="-60"/>
      <point x="359" y="-70" type="curve"/>
      <point x="428" y="-70"/>
      <point x="474" y="-70"/>
      <point x="496" y="-64" type="curve" smooth="yes"/>
      <point x="518" y="-58"/>
      <point x="526" y="-46"/>
      <point x="526" y="-18" type="curve" smooth="yes"/>
    </contour>
    <contour>
      <point x="331" y="254" type="curve"/>
      <point x="302" y="262" type="line"/>
      <point x="254" y="164"/>
      <point x="171" y="68"/>
      <point x="88" y="12" type="curve"/>
      <point x="95" y="7"/>
      <point x="105" y="-3"/>
      <point x="110" y="-10" type="curve"/>
      <point x="195" y="50"/>
      <point x="280" y="151"/>
    </contour>
    <contour>
      <point x="691" y="264" type="curve"/>
      <point x="669" y="249" type="line"/>
      <point x="754" y="171"/>
      <point x="851" y="61"/>
      <point x="895" y="-10" type="curve"/>
      <point x="919" y="9" type="line"/>
      <point x="874" y="79"/>
      <point x="777" y="186"/>
    </contour>
    <contour>
      <point x="913" y="693" type="line"/>
      <point x="86" y="693" type="line"/>
      <point x="86" y="664" type="line"/>
      <point x="913" y="664" type="line"/>
    </contour>
    <contour>
      <point x="853" y="389" type="line"/>
      <point x="199" y="389" type="line"/>
      <point x="199" y="360" type="line"/>
      <point x="853" y="360" type="line"/>
    </contour>
  </outline>
</glyph>
<glyph name="uni4E50" format="2">
  <advance width="1000"/>
  <unicode hex="4E50"/>
  <note>
cid09589
</note>
  <outline>
    <contour>
      <point x="856" y="789" type="curve"/>
      <point x="835" y="814" type="line"/>
      <point x="690" y="779"/>
      <point x="431" y="745"/>
      <point x="208" y="733" type="curve"/>
      <point x="212" y="727"/>
      <point x="217" y="716"/>
      <point x="218" y="708" type="curve"/>
      <point x="437" y="718"/>
      <point x="700" y="752"/>
    </contour>
    <contour>
      <point x="232" y="734" type="curve"/>
      <point x="201" y="744" type="line"/>
      <point x="177" y="615"/>
      <point x="137" y="436"/>
      <point x="105" y="329" type="curve"/>
      <point x="135" y="324" type="line"/>
      <point x="165" y="428"/>
      <point x="205" y="601"/>
    </contour>
    <contour>
      <point x="922" y="416" type="line"/>
      <point x="148" y="416" type="line"/>
      <point x="139" y="387" type="line"/>
      <point x="922" y="387" type="line"/>
    </contour>
    <contour>
      <point x="533" y="647" type="line"/>
      <point x="504" y="647" type="line"/>
      <point x="504" y="-20" type="line" smooth="yes"/>
      <point x="504" y="-37"/>
      <point x="497" y="-42"/>
      <point x="480" y="-43" type="curve" smooth="yes"/>
      <point x="464" y="-44"/>
      <point x="407" y="-45"/>
      <point x="335" y="-43" type="curve"/>
      <point x="340" y="-52"/>
      <point x="345" y="-64"/>
      <point x="348" y="-71" type="curve"/>
      <point x="435" y="-71"/>
      <point x="478" y="-71"/>
      <point x="501" y="-65" type="curve" smooth="yes"/>
      <point x="524" y="-60"/>
      <point x="533" y="-49"/>
      <point x="533" y="-19" type="curve" smooth="yes"/>
    </contour>
    <contour>
      <point x="284" y="264" type="curve"/>
      <point x="256" y="273" type="line"/>
      <point x="203" y="180"/>
      <point x="122" y="83"/>
      <point x="47" y="18" type="curve"/>
      <point x="54" y="12"/>
      <point x="66" y="0"/>
      <point x="71" y="-5" type="curve"/>
      <point x="144" y="65"/>
      <point x="228" y="167"/>
    </contour>
    <contour>
      <point x="729" y="272" type="curve"/>
      <point x="706" y="257" type="line"/>
      <point x="787" y="178"/>
      <point x="882" y="67"/>
      <point x="928" y="0" type="curve"/>
      <point x="953" y="19" type="line"/>
      <point x="907" y="84"/>
      <point x="811" y="193"/>
    </contour>
  </outline>
</glyph>
<glyph name="uni4FE1" format="2">
  <advance width="1000" height="1000"/>
  <unicode hex="4FE1"/>
  <note>
cid10219
</note>
  <outline>
    <contour>
      <point x="632" y="657" type="line"/>
      <point x="632" y="820" type="line"/>
      <point x="603" y="820" type="line"/>
      <point x="603" y="657" type="line"/>
    </contour>
    <contour>
      <point x="868" y="498" type="line"/>
      <point x="868" y="528" type="line"/>
      <point x="378" y="528" type="line"/>
      <point x="378" y="498" type="line"/>
    </contour>
    <contour>
      <point x="868" y="353" type="line"/>
      <point x="868" y="383" type="line"/>
      <point x="378" y="383" type="line"/>
      <point x="378" y="353" type="line"/>
    </contour>
    <contour>
      <point x="857" y="-16" type="line"/>
      <point x="857" y="14" type="line"/>
      <point x="388" y="14" type="line"/>
      <point x="388" y="-16" type="line"/>
    </contour>
    <contour>
      <point x="951" y="642" type="line"/>
      <point x="951" y="671" type="line"/>
      <point x="293" y="671" type="line"/>
      <point x="293" y="642" type="line"/>
    </contour>
    <contour>
      <point x="872" y="-68" type="line"/>
      <point x="872" y="239" type="line"/>
      <point x="374" y="239" type="line"/>
      <point x="374" y="-71" type="line"/>
      <point x="403" y="-71" type="line"/>
      <point x="403" y="210" type="line"/>
      <point x="843" y="210" type="line"/>
      <point x="843" y="-68" type="line"/>
    </contour>
    <contour>
      <point x="328" y="819" type="curve"/>
      <point x="299" y="827" type="line"/>
      <point x="236" y="667"/>
      <point x="134" y="511"/>
      <point x="27" y="410" type="curve"/>
      <point x="34" y="404"/>
      <point x="44" y="391"/>
      <point x="49" y="385" type="curve"/>
      <point x="157" y="494"/>
      <point x="260" y="651"/>
    </contour>
    <contour>
      <point x="187" y="588" type="line"/>
      <point x="187" y="-68" type="line"/>
      <point x="217" y="-68" type="line"/>
      <point x="217" y="615" type="line"/>
      <point x="215" y="616" type="line"/>
    </contour>
  </outline>
</glyph>
<glyph name="uni5199" format="2">
  <advance width="1000" height="1000"/>
  <unicode hex="5199"/>
  <note>
cid10998
</note>
  <outline>
    <contour>
      <point x="910" y="574" type="line"/>
      <point x="910" y="768" type="line"/>
      <point x="91" y="768" type="line"/>
      <point x="91" y="574" type="line"/>
      <point x="121" y="574" type="line"/>
      <point x="121" y="739" type="line"/>
      <point x="880" y="739" type="line"/>
      <point x="880" y="574" type="line"/>
    </contour>
    <contour>
      <point x="802" y="543" type="line"/>
      <point x="802" y="572" type="line"/>
      <point x="293" y="572" type="line"/>
      <point x="293" y="543" type="line"/>
    </contour>
    <contour>
      <point x="796" y="358" type="line"/>
      <point x="796" y="387" type="line"/>
      <point x="249" y="387" type="line"/>
      <point x="249" y="358" type="line"/>
    </contour>
    <contour>
      <point x="661" y="171" type="line"/>
      <point x="661" y="200" type="line"/>
      <point x="70" y="200" type="line"/>
      <point x="70" y="171" type="line"/>
    </contour>
    <contour>
      <point x="819" y="387" type="curve"/>
      <point x="789" y="387" type="line"/>
      <point x="789" y="380" type="line" smooth="yes"/>
      <point x="763" y="104"/>
      <point x="739" y="-2"/>
      <point x="703" y="-33" type="curve" smooth="yes"/>
      <point x="693" y="-43"/>
      <point x="681" y="-44"/>
      <point x="657" y="-44" type="curve" smooth="yes"/>
      <point x="634" y="-44"/>
      <point x="565" y="-43"/>
      <point x="492" y="-36" type="curve"/>
      <point x="497" y="-45"/>
      <point x="500" y="-57"/>
      <point x="502" y="-65" type="curve"/>
      <point x="568" y="-70"/>
      <point x="633" y="-72"/>
      <point x="663" y="-71" type="curve" smooth="yes"/>
      <point x="693" y="-71"/>
      <point x="710" y="-66"/>
      <point x="728" y="-51" type="curve" smooth="yes"/>
      <point x="767" y="-14"/>
      <point x="791" y="89"/>
      <point x="817" y="368" type="curve" smooth="yes"/>
      <point x="818" y="374"/>
      <point x="819" y="387"/>
    </contour>
    <contour>
      <point x="343" y="715" type="curve"/>
      <point x="313" y="719" type="line"/>
      <point x="288" y="598"/>
      <point x="247" y="424"/>
      <point x="217" y="325" type="curve"/>
      <point x="247" y="320" type="line"/>
      <point x="276" y="418"/>
      <point x="318" y="591"/>
    </contour>
  </outline>
</glyph>
<glyph name="uni519B" format="2">
  <advance width="1000"/>
  <unicode hex="519B"/>
  <note>
cid10976
</note>
  <outline>
    <contour>
      <point x="916" y="594" type="line"/>
      <point x="916" y="783" type="line"/>
      <point x="86" y="783" type="line"/>
      <point x="86" y="594" type="line"/>
      <point x="116" y="594" type="line"/>
      <point x="116" y="754" type="line"/>
      <point x="886" y="754" type="line"/>
      <point x="886" y="594" type="line"/>
    </contour>
    <contour>
      <point x="817" y="536" type="line"/>
      <point x="817" y="566" type="line"/>
      <point x="181" y="566" type="line"/>
      <point x="181" y="536" type="line"/>
    </contour>
    <contour>
      <point x="930" y="117" type="line"/>
      <point x="930" y="146" type="line"/>
      <point x="74" y="146" type="line"/>
      <point x="74" y="117" type="line"/>
    </contour>
    <contour>
      <point x="526" y="-70" type="line"/>
      <point x="526" y="476" type="line"/>
      <point x="497" y="476" type="line"/>
      <point x="497" y="-70" type="line"/>
    </contour>
    <contour>
      <point x="846" y="301" type="line"/>
      <point x="846" y="330" type="line"/>
      <point x="242" y="330" type="line"/>
      <point x="242" y="301" type="line"/>
    </contour>
    <contour>
      <point x="401" y="688" type="curve"/>
      <point x="371" y="693" type="line"/>
      <point x="329" y="553"/>
      <point x="263" y="388"/>
      <point x="201" y="265" type="curve"/>
      <point x="231" y="260" type="line"/>
      <point x="291" y="380"/>
      <point x="357" y="545"/>
    </contour>
  </outline>
</glyph>
<glyph name="uni519C" format="2">
  <advance width="1000"/>
  <unicode hex="519C"/>
  <note>
cid10977
</note>
  <outline>
    <contour>
      <point x="890" y="513" type="line"/>
      <point x="890" y="702" type="line"/>
      <point x="108" y="702" type="line"/>
      <point x="108" y="513" type="line"/>
      <point x="137" y="513" type="line"/>
      <point x="137" y="672" type="line"/>
      <point x="861" y="672" type="line"/>
      <point x="861" y="513" type="line"/>
    </contour>
    <contour>
      <point x="531" y="828" type="curve"/>
      <point x="503" y="832" type="line"/>
      <point x="464" y="574"/>
      <point x="287" y="356"/>
      <point x="43" y="268" type="curve"/>
      <point x="50" y="261"/>
      <point x="58" y="249"/>
      <point x="62" y="242" type="curve"/>
      <point x="309" y="340"/>
      <point x="489" y="566"/>
    </contour>
    <contour>
      <point x="503" y="688" type="curve"/>
      <point x="476" y="684" type="line"/>
      <point x="531" y="316"/>
      <point x="708" y="28"/>
      <point x="936" y="-61" type="curve"/>
      <point x="941" y="-53"/>
      <point x="950" y="-43"/>
      <point x="957" y="-36" type="curve"/>
      <point x="733" y="45"/>
      <point x="558" y="324"/>
    </contour>
    <contour>
      <point x="859" y="455" type="curve"/>
      <point x="835" y="474" type="line"/>
      <point x="778" y="416"/>
      <point x="676" y="336"/>
      <point x="603" y="289" type="curve"/>
      <point x="622" y="271" type="line"/>
      <point x="695" y="318"/>
      <point x="792" y="393"/>
    </contour>
    <contour>
      <point x="118" y="-30" type="curve"/>
      <point x="129" y="-59" type="line"/>
      <point x="255" y="-31"/>
      <point x="447" y="10"/>
      <point x="625" y="49" type="curve"/>
      <point x="623" y="76" type="line"/>
      <point x="433" y="35"/>
      <point x="236" y="-6"/>
    </contour>
    <contour>
      <point x="308" y="431" type="line"/>
      <point x="306" y="433" type="line"/>
      <point x="279" y="406" type="line"/>
      <point x="279" y="-9" type="line"/>
      <point x="308" y="-9" type="line"/>
    </contour>
  </outline>
</glyph>
<glyph name="uni5355" format="2">
  <advance width="1000" height="1000"/>
  <unicode hex="5355"/>
  <note>
cid11702
</note>
  <outline>
    <contour>
      <point x="512" y="-72" type="line"/>
      <point x="512" y="638" type="line"/>
      <point x="482" y="638" type="line"/>
      <point x="482" y="-72" type="line"/>
    </contour>
    <contour>
      <point x="819" y="299" type="line"/>
      <point x="189" y="299" type="line"/>
      <point x="189" y="446" type="line"/>
      <point x="819" y="446" type="line"/>
    </contour>
    <contour>
      <point x="819" y="475" type="line"/>
      <point x="189" y="475" type="line"/>
      <point x="189" y="621" type="line"/>
      <point x="819" y="621" type="line"/>
    </contour>
    <contour>
      <point x="849" y="270" type="line"/>
      <point x="849" y="650" type="line"/>
      <point x="160" y="650" type="line"/>
      <point x="160" y="270" type="line"/>
    </contour>
    <contour>
      <point x="943" y="123" type="line"/>
      <point x="943" y="152" type="line"/>
      <point x="60" y="152" type="line"/>
      <point x="60" y="123" type="line"/>
    </contour>
    <contour>
      <point x="271" y="825" type="curve"/>
      <point x="245" y="814" type="line"/>
      <point x="282" y="765"/>
      <point x="321" y="697"/>
      <point x="338" y="655" type="curve"/>
      <point x="363" y="670" type="line"/>
      <point x="347" y="711"/>
      <point x="308" y="776"/>
    </contour>
    <contour>
      <point x="756" y="818" type="curve"/>
      <point x="728" y="832" type="line"/>
      <point x="706" y="782"/>
      <point x="662" y="708"/>
      <point x="630" y="664" type="curve"/>
      <point x="653" y="652" type="line"/>
      <point x="685" y="695"/>
      <point x="726" y="763"/>
    </contour>
  </outline>
</glyph>
<glyph name="uni53CD" format="2">
  <advance width="1000" height="1000"/>
  <unicode hex="53CD"/>
  <note>
cid11891
</note>
  <outline>
    <contour>
      <point x="809" y="480" type="line"/>
      <point x="809" y="510" type="line"/>
      <point x="204" y="510" type="line"/>
      <point x="204" y="480" type="line"/>
    </contour>
    <contour>
      <point x="811" y="512" type="line"/>
      <point x="804" y="510" type="line"/>
      <point x="798" y="510" type="line"/>
      <point x="798" y="503" type="line"/>
      <point x="708" y="198"/>
      <point x="452" y="23"/>
      <point x="202" y="-44" type="curve"/>
      <point x="209" y="-51"/>
      <point x="217" y="-63"/>
      <point x="220" y="-71" type="curve"/>
      <point x="476" y="3"/>
      <point x="733" y="179"/>
      <point x="830" y="502" type="curve"/>
    </contour>
    <contour>
      <point x="334" y="502" type="curve"/>
      <point x="306" y="493" type="line"/>
      <point x="401" y="191"/>
      <point x="600" y="2"/>
      <point x="914" y="-73" type="curve"/>
      <point x="917" y="-65"/>
      <point x="926" y="-54"/>
      <point x="933" y="-47" type="curve"/>
      <point x="621" y="23"/>
      <point x="425" y="211"/>
    </contour>
    <contour>
      <point x="234" y="719" type="curve"/>
      <point x="190" y="734" type="line"/>
      <point x="190" y="434" type="line" smooth="yes"/>
      <point x="190" y="283"/>
      <point x="175" y="94"/>
      <point x="42" y="-47" type="curve"/>
      <point x="50" y="-52"/>
      <point x="60" y="-62"/>
      <point x="64" y="-68" type="curve"/>
      <point x="201" y="82"/>
      <point x="220" y="278"/>
      <point x="220" y="433" type="curve" smooth="yes"/>
      <point x="220" y="710" type="line"/>
      <point x="230" y="711"/>
      <point x="233" y="714"/>
    </contour>
    <contour>
      <point x="840" y="790" type="curve"/>
      <point x="814" y="814" type="line"/>
      <point x="681" y="771"/>
      <point x="415" y="739"/>
      <point x="200" y="720" type="curve"/>
      <point x="203" y="714"/>
      <point x="208" y="703"/>
      <point x="209" y="695" type="curve"/>
      <point x="427" y="713"/>
      <point x="691" y="745"/>
    </contour>
  </outline>
</glyph>
<glyph name="uni5988" format="2">
  <advance width="1000"/>
  <unicode hex="5988"/>
  <note>
cid14249
</note>
  <outline>
    <contour>
      <point x="345" y="587" type="line"/>
      <point x="345" y="617" type="line"/>
      <point x="49" y="617" type="line"/>
      <point x="49" y="587" type="line"/>
    </contour>
    <contour>
      <point x="235" y="826" type="curve"/>
      <point x="205" y="830" type="line"/>
      <point x="170" y="649"/>
      <point x="109" y="376"/>
      <point x="66" y="229" type="curve"/>
      <point x="95" y="217" type="line"/>
      <point x="136" y="368"/>
      <point x="198" y="640"/>
    </contour>
    <contour>
      <point x="107" y="301" type="curve"/>
      <point x="88" y="280" type="line"/>
      <point x="193" y="206"/>
      <point x="308" y="95"/>
      <point x="361" y="18" type="curve"/>
      <point x="380" y="42" type="line"/>
      <point x="329" y="117"/>
      <point x="213" y="226"/>
    </contour>
    <contour>
      <point x="347" y="619" type="line"/>
      <point x="341" y="617" type="line"/>
      <point x="335" y="617" type="line"/>
      <point x="335" y="608" type="line" smooth="yes"/>
      <point x="310" y="247"/>
      <point x="203" y="42"/>
      <point x="52" y="-47" type="curve"/>
      <point x="60" y="-53"/>
      <point x="69" y="-64"/>
      <point x="74" y="-71" type="curve"/>
      <point x="231" y="28"/>
      <point x="338" y="233"/>
      <point x="366" y="614" type="curve"/>
    </contour>
    <contour>
      <point x="930" y="387" type="curve"/>
      <point x="900" y="387" type="line"/>
      <point x="900" y="380" type="line" smooth="yes"/>
      <point x="876" y="108"/>
      <point x="852" y="4"/>
      <point x="820" y="-26" type="curve" smooth="yes"/>
      <point x="811" y="-35"/>
      <point x="800" y="-37"/>
      <point x="781" y="-36" type="curve" smooth="yes"/>
      <point x="763" y="-36"/>
      <point x="713" y="-36"/>
      <point x="658" y="-30" type="curve"/>
      <point x="663" y="-39"/>
      <point x="666" y="-52"/>
      <point x="667" y="-61" type="curve"/>
      <point x="716" y="-65"/>
      <point x="764" y="-65"/>
      <point x="787" y="-65" type="curve" smooth="yes"/>
      <point x="814" y="-65"/>
      <point x="829" y="-60"/>
      <point x="844" y="-45" type="curve" smooth="yes"/>
      <point x="880" y="-10"/>
      <point x="903" y="91"/>
      <point x="928" y="368" type="curve" smooth="yes"/>
      <point x="929" y="374"/>
      <point x="930" y="387"/>
    </contour>
    <contour>
      <point x="819" y="734" type="line"/>
      <point x="819" y="764" type="line"/>
      <point x="422" y="764" type="line"/>
      <point x="422" y="734" type="line"/>
    </contour>
    <contour>
      <point x="907" y="358" type="line"/>
      <point x="907" y="387" type="line"/>
      <point x="447" y="387" type="line"/>
      <point x="447" y="358" type="line"/>
    </contour>
    <contour>
      <point x="803" y="163" type="line"/>
      <point x="803" y="192" type="line"/>
      <point x="375" y="192" type="line"/>
      <point x="375" y="163" type="line"/>
    </contour>
    <contour>
      <point x="815" y="767" type="line"/>
      <point x="809" y="764" type="line"/>
      <point x="806" y="764" type="line"/>
      <point x="806" y="758" type="line" smooth="yes"/>
      <point x="798" y="671"/>
      <point x="778" y="486"/>
      <point x="761" y="366" type="curve"/>
      <point x="789" y="364" type="line"/>
      <point x="807" y="485"/>
      <point x="826" y="661"/>
      <point x="835" y="763" type="curve"/>
    </contour>
    <contour>
      <point x="499" y="645" type="curve"/>
      <point x="469" y="648" type="line"/>
      <point x="458" y="536"/>
      <point x="441" y="409"/>
      <point x="425" y="318" type="curve"/>
      <point x="455" y="316" type="line"/>
      <point x="470" y="406"/>
      <point x="487" y="533"/>
    </contour>
  </outline>
</glyph>
<glyph name="uni5B9E" format="2">
  <advance width="1000"/>
  <unicode hex="5B9E"/>
  <note>
cid15507
</note>
  <outline>
    <contour>
      <point x="562" y="169" type="curve"/>
      <point x="545" y="148" type="line"/>
      <point x="683" y="86"/>
      <point x="819" y="8"/>
      <point x="903" y="-63" type="curve"/>
      <point x="923" y="-41" type="line"/>
      <point x="839" y="30"/>
      <point x="699" y="109"/>
    </contour>
    <contour>
      <point x="553" y="610" type="curve"/>
      <point x="523" y="610" type="line"/>
      <point x="512" y="236"/>
      <point x="482" y="41"/>
      <point x="86" y="-38" type="curve"/>
      <point x="92" y="-45"/>
      <point x="101" y="-57"/>
      <point x="104" y="-65" type="curve"/>
      <point x="505" y="20"/>
      <point x="541" y="224"/>
    </contour>
    <contour>
      <point x="931" y="237" type="line"/>
      <point x="75" y="237" type="line"/>
      <point x="75" y="208" type="line"/>
      <point x="931" y="208" type="line"/>
    </contour>
    <contour>
      <point x="269" y="586" type="curve"/>
      <point x="249" y="568" type="line"/>
      <point x="305" y="534"/>
      <point x="368" y="483"/>
      <point x="399" y="447" type="curve"/>
      <point x="419" y="469" type="line"/>
      <point x="388" y="505"/>
      <point x="325" y="554"/>
    </contour>
    <contour>
      <point x="171" y="427" type="curve"/>
      <point x="151" y="408" type="line"/>
      <point x="211" y="374"/>
      <point x="280" y="320"/>
      <point x="314" y="281" type="curve"/>
      <point x="333" y="305" type="line"/>
      <point x="300" y="342"/>
      <point x="231" y="394"/>
    </contour>
    <contour>
      <point x="513" y="830" type="line"/>
      <point x="484" y="830" type="line"/>
      <point x="484" y="682" type="line"/>
      <point x="513" y="682" type="line"/>
    </contour>
    <contour>
      <point x="897" y="696" type="line"/>
      <point x="104" y="696" type="line"/>
      <point x="104" y="519" type="line"/>
      <point x="133" y="519" type="line"/>
      <point x="133" y="667" type="line"/>
      <point x="868" y="667" type="line"/>
      <point x="868" y="519" type="line"/>
      <point x="897" y="519" type="line"/>
    </contour>
  </outline>
</glyph>
<glyph name="uni5C81" format="2">
  <advance width="1000"/>
  <unicode hex="5C81"/>
  <note>
cid15921
</note>
  <outline>
    <contour>
      <point x="232" y="363" type="curve"/>
      <point x="208" y="345" type="line"/>
      <point x="333" y="270"/>
      <point x="468" y="166"/>
      <point x="536" y="95" type="curve"/>
      <point x="560" y="114" type="line"/>
      <point x="491" y="186"/>
      <point x="356" y="289"/>
    </contour>
    <contour>
      <point x="786" y="410" type="line"/>
      <point x="786" y="440" type="line"/>
      <point x="325" y="440" type="line"/>
      <point x="325" y="410" type="line"/>
    </contour>
    <contour>
      <point x="458" y="572" type="curve"/>
      <point x="428" y="580" type="line"/>
      <point x="365" y="464"/>
      <point x="228" y="348"/>
      <point x="72" y="278" type="curve"/>
      <point x="81" y="272"/>
      <point x="90" y="263"/>
      <point x="95" y="257" type="curve"/>
      <point x="251" y="327"/>
      <point x="391" y="449"/>
    </contour>
    <contour>
      <point x="798" y="442" type="line"/>
      <point x="791" y="440" type="line"/>
      <point x="784" y="440" type="line"/>
      <point x="784" y="433" type="line"/>
      <point x="676" y="174"/>
      <point x="454" y="15"/>
      <point x="114" y="-47" type="curve"/>
      <point x="121" y="-53"/>
      <point x="129" y="-65"/>
      <point x="132" y="-73" type="curve"/>
      <point x="475" y="-9"/>
      <point x="702" y="157"/>
      <point x="817" y="429" type="curve"/>
    </contour>
    <contour>
      <point x="167" y="596" type="line"/>
      <point x="167" y="782" type="line"/>
      <point x="137" y="782" type="line"/>
      <point x="137" y="567" type="line"/>
      <point x="868" y="567" type="line"/>
      <point x="868" y="782" type="line"/>
      <point x="838" y="782" type="line"/>
      <point x="838" y="596" type="line"/>
    </contour>
    <contour>
      <point x="514" y="578" type="line"/>
      <point x="514" y="832" type="line"/>
      <point x="484" y="832" type="line"/>
      <point x="484" y="578" type="line"/>
    </contour>
  </outline>
</glyph>
<glyph name="uni65B0" format="2">
  <advance width="1000" height="1000"/>
  <unicode hex="65B0"/>
  <note>
cid20118
</note>
  <outline>
    <contour>
      <point x="951" y="457" type="line"/>
      <point x="951" y="486" type="line"/>
      <point x="579" y="486" type="line"/>
      <point x="579" y="457" type="line"/>
    </contour>
    <contour>
      <point x="502" y="691" type="line"/>
      <point x="502" y="720" type="line"/>
      <point x="69" y="720" type="line"/>
      <point x="69" y="691" type="line"/>
    </contour>
    <contour>
      <point x="512" y="295" type="line"/>
      <point x="512" y="325" type="line"/>
      <point x="57" y="325" type="line"/>
      <point x="57" y="295" type="line"/>
    </contour>
    <contour>
      <point x="518" y="457" type="line"/>
      <point x="518" y="486" type="line"/>
      <point x="54" y="486" type="line"/>
      <point x="54" y="457" type="line"/>
    </contour>
    <contour>
      <point x="819" y="-65" type="line"/>
      <point x="819" y="478" type="line"/>
      <point x="790" y="478" type="line"/>
      <point x="790" y="-65" type="line"/>
    </contour>
    <contour>
      <point x="302" y="699" type="line"/>
      <point x="302" y="831" type="line"/>
      <point x="273" y="831" type="line"/>
      <point x="273" y="699" type="line"/>
    </contour>
    <contour>
      <point x="605" y="729" type="curve"/>
      <point x="560" y="746" type="line"/>
      <point x="560" y="386" type="line" smooth="yes"/>
      <point x="560" y="249"/>
      <point x="550" y="77"/>
      <point x="452" y="-53" type="curve"/>
      <point x="459" y="-58"/>
      <point x="469" y="-68"/>
      <point x="473" y="-74" type="curve"/>
      <point x="576" y="64"/>
      <point x="590" y="245"/>
      <point x="590" y="386" type="curve" smooth="yes"/>
      <point x="590" y="720" type="line"/>
      <point x="600" y="721"/>
      <point x="604" y="724"/>
    </contour>
    <contour>
      <point x="929" y="795" type="curve"/>
      <point x="904" y="818" type="line"/>
      <point x="829" y="783"/>
      <point x="685" y="749"/>
      <point x="566" y="726" type="curve"/>
      <point x="570" y="719"/>
      <point x="574" y="709"/>
      <point x="576" y="702" type="curve"/>
      <point x="698" y="723"/>
      <point x="843" y="757"/>
    </contour>
    <contour>
      <point x="166" y="674" type="curve"/>
      <point x="139" y="669" type="line"/>
      <point x="162" y="616"/>
      <point x="182" y="547"/>
      <point x="185" y="501" type="curve"/>
      <point x="214" y="509" type="line"/>
      <point x="209" y="553"/>
      <point x="189" y="622"/>
    </contour>
    <contour>
      <point x="433" y="666" type="curve"/>
      <point x="403" y="676" type="line"/>
      <point x="390" y="628"/>
      <point x="364" y="553"/>
      <point x="343" y="509" type="curve"/>
      <point x="368" y="500" type="line"/>
      <point x="389" y="543"/>
      <point x="414" y="611"/>
    </contour>
    <contour>
      <point x="302" y="-15" type="curve" smooth="yes"/>
      <point x="302" y="471" type="line"/>
      <point x="272" y="471" type="line"/>
      <point x="272" y="-15" type="line" smooth="yes"/>
      <point x="272" y="-29"/>
      <point x="268" y="-32"/>
      <point x="254" y="-33" type="curve" smooth="yes"/>
      <point x="241" y="-34"/>
      <point x="196" y="-34"/>
      <point x="140" y="-33" type="curve"/>
      <point x="145" y="-41"/>
      <point x="151" y="-53"/>
      <point x="153" y="-60" type="curve"/>
      <point x="221" y="-60"/>
      <point x="257" y="-60"/>
      <point x="275" y="-55" type="curve" smooth="yes"/>
      <point x="294" y="-50"/>
      <point x="302" y="-40"/>
    </contour>
    <contour>
      <point x="389" y="226" type="curve"/>
      <point x="365" y="216" type="line"/>
      <point x="398" y="162"/>
      <point x="434" y="90"/>
      <point x="451" y="42" type="curve"/>
      <point x="477" y="55" type="line"/>
      <point x="462" y="101"/>
      <point x="425" y="172"/>
    </contour>
    <contour>
      <point x="187" y="219" type="curve"/>
      <point x="158" y="226" type="line"/>
      <point x="135" y="157"/>
      <point x="100" y="89"/>
      <point x="56" y="40" type="curve"/>
      <point x="64" y="36"/>
      <point x="77" y="26"/>
      <point x="82" y="22" type="curve"/>
      <point x="124" y="72"/>
      <point x="163" y="146"/>
    </contour>
  </outline>
</glyph>
<glyph name="uni6C47" format="2">
  <advance width="1000" height="1000"/>
  <unicode hex="6C47"/>
  <note>
cid23035
</note>
  <outline>
    <contour>
      <point x="926" y="765" type="line"/>
      <point x="389" y="765" type="line"/>
      <point x="389" y="-72" type="line"/>
      <point x="419" y="-72" type="line"/>
      <point x="419" y="735" type="line"/>
      <point x="926" y="735" type="line"/>
    </contour>
    <contour>
      <point x="954" y="25" type="line"/>
      <point x="403" y="25" type="line"/>
      <point x="403" y="-5" type="line"/>
      <point x="954" y="-5" type="line"/>
    </contour>
    <contour>
      <point x="125" y="820" type="curve"/>
      <point x="108" y="798" type="line"/>
      <point x="179" y="768"/>
      <point x="261" y="720"/>
      <point x="303" y="684" type="curve"/>
      <point x="320" y="710" type="line"/>
      <point x="279" y="746"/>
      <point x="195" y="792"/>
    </contour>
    <contour>
      <point x="65" y="548" type="curve"/>
      <point x="49" y="524" type="line"/>
      <point x="121" y="498"/>
      <point x="206" y="454"/>
      <point x="250" y="421" type="curve"/>
      <point x="266" y="447" type="line"/>
      <point x="222" y="480"/>
      <point x="136" y="523"/>
    </contour>
    <contour>
      <point x="99" y="-35" type="curve"/>
      <point x="125" y="-56" type="line"/>
      <point x="183" y="36"/>
      <point x="263" y="179"/>
      <point x="318" y="289" type="curve"/>
      <point x="295" y="308" type="line"/>
      <point x="238" y="192"/>
      <point x="155" y="47"/>
    </contour>
  </outline>
</glyph>
<glyph name="uni7EA2" format="2">
  <advance width="1000" height="1000"/>
  <unicode hex="7EA2"/>
  <note>
cid31693
</note>
  <outline>
    <contour>
      <point x="930" y="726" type="line"/>
      <point x="433" y="726" type="line"/>
      <point x="433" y="697" type="line"/>
      <point x="930" y="697" type="line"/>
    </contour>
    <contour>
      <point x="952" y="30" type="line"/>
      <point x="413" y="30" type="line"/>
      <point x="413" y="0" type="line"/>
      <point x="952" y="0" type="line"/>
    </contour>
    <contour>
      <point x="695" y="718" type="line"/>
      <point x="665" y="718" type="line"/>
      <point x="665" y="12" type="line"/>
      <point x="695" y="12" type="line"/>
    </contour>
    <contour>
      <point x="287" y="814" type="curve"/>
      <point x="259" y="827" type="line"/>
      <point x="217" y="715"/>
      <point x="150" y="566"/>
      <point x="97" y="468" type="curve"/>
      <point x="120" y="453" type="line"/>
      <point x="176" y="551"/>
      <point x="240" y="691"/>
    </contour>
    <contour>
      <point x="50" y="471" type="curve"/>
      <point x="56" y="440" type="line"/>
      <point x="122" y="447"/>
      <point x="215" y="459"/>
      <point x="297" y="472" type="curve"/>
      <point x="295" y="499" type="line"/>
      <point x="207" y="487"/>
      <point x="113" y="476"/>
    </contour>
    <contour>
      <point x="385" y="619" type="curve"/>
      <point x="357" y="634" type="line"/>
      <point x="287" y="493"/>
      <point x="187" y="327"/>
      <point x="114" y="231" type="curve"/>
      <point x="137" y="214" type="line"/>
      <point x="212" y="313"/>
      <point x="308" y="469"/>
    </contour>
    <contour>
      <point x="53" y="229" type="curve"/>
      <point x="61" y="197" type="line"/>
      <point x="163" y="212"/>
      <point x="292" y="234"/>
      <point x="396" y="254" type="curve"/>
      <point x="395" y="283" type="line"/>
      <point x="284" y="263"/>
      <point x="152" y="242"/>
    </contour>
    <contour>
      <point x="50" y="32" type="curve"/>
      <point x="57" y="1" type="line"/>
      <point x="149" y="21"/>
      <point x="279" y="47"/>
      <point x="406" y="73" type="curve"/>
      <point x="404" y="101" type="line"/>
      <point x="271" y="75"/>
      <point x="137" y="47"/>
    </contour>
  </outline>
</glyph>
<glyph name="uni7EA4" format="2">
  <advance width="1000" height="1000"/>
  <unicode hex="7EA4"/>
  <note>
cid31703
</note>
  <outline>
    <contour>
      <point x="888" y="788" type="curve"/>
      <point x="861" y="811" type="line"/>
      <point x="773" y="771"/>
      <point x="613" y="732"/>
      <point x="445" y="710" type="curve"/>
      <point x="450" y="703"/>
      <point x="454" y="692"/>
      <point x="456" y="685" type="curve"/>
      <point x="623" y="707"/>
      <point x="789" y="747"/>
    </contour>
    <contour>
      <point x="950" y="386" type="line"/>
      <point x="950" y="416" type="line"/>
      <point x="413" y="416" type="line"/>
      <point x="413" y="386" type="line"/>
    </contour>
    <contour>
      <point x="692" y="-69" type="line"/>
      <point x="692" y="742" type="line"/>
      <point x="663" y="742" type="line"/>
      <point x="663" y="-69" type="line"/>
    </contour>
    <contour>
      <point x="311" y="815" type="curve"/>
      <point x="283" y="829" type="line"/>
      <point x="233" y="710"/>
      <point x="157" y="561"/>
      <point x="98" y="468" type="curve"/>
      <point x="120" y="452" type="line"/>
      <point x="180" y="547"/>
      <point x="254" y="687"/>
    </contour>
    <contour>
      <point x="50" y="471" type="curve"/>
      <point x="57" y="440" type="line"/>
      <point x="127" y="448"/>
      <point x="229" y="461"/>
      <point x="321" y="475" type="curve"/>
      <point x="319" y="502" type="line"/>
      <point x="223" y="489"/>
      <point x="119" y="477"/>
    </contour>
    <contour>
      <point x="406" y="604" type="curve"/>
      <point x="379" y="621" type="line"/>
      <point x="307" y="494"/>
      <point x="198" y="335"/>
      <point x="115" y="236" type="curve"/>
      <point x="137" y="218" type="line"/>
      <point x="222" y="318"/>
      <point x="326" y="467"/>
    </contour>
    <contour>
      <point x="52" y="233" type="curve"/>
      <point x="59" y="200" type="line"/>
      <point x="159" y="215"/>
      <point x="290" y="237"/>
      <point x="400" y="256" type="curve"/>
      <point x="399" y="285" type="line"/>
      <point x="284" y="266"/>
      <point x="150" y="246"/>
    </contour>
    <contour>
      <point x="50" y="31" type="curve"/>
      <point x="58" y="1" type="line"/>
      <point x="153" y="20"/>
      <point x="287" y="48"/>
      <point x="406" y="73" type="curve"/>
      <point x="404" y="102" type="line"/>
      <point x="279" y="76"/>
      <point x="143" y="48"/>
    </contour>
  </outline>
</glyph>
<glyph name="uni7EAC" format="2">
  <advance width="1000" height="1000"/>
  <unicode hex="7EAC"/>
  <note>
cid31711
</note>
  <outline>
    <contour>
      <point x="57" y="38" type="curve"/>
      <point x="65" y="9" type="line"/>
      <point x="148" y="30"/>
      <point x="269" y="62"/>
      <point x="378" y="92" type="curve"/>
      <point x="376" y="120" type="line"/>
      <point x="259" y="89"/>
      <point x="136" y="57"/>
    </contour>
    <contour>
      <point x="915" y="659" type="line"/>
      <point x="915" y="688" type="line"/>
      <point x="416" y="688" type="line"/>
      <point x="416" y="659" type="line"/>
    </contour>
    <contour>
      <point x="868" y="482" type="line"/>
      <point x="868" y="512" type="line"/>
      <point x="439" y="512" type="line"/>
      <point x="439" y="482" type="line"/>
    </contour>
    <contour>
      <point x="939" y="329" type="curve"/>
      <point x="910" y="329" type="line"/>
      <point x="910" y="323" type="line" smooth="yes"/>
      <point x="900" y="149"/>
      <point x="889" y="85"/>
      <point x="874" y="68" type="curve" smooth="yes"/>
      <point x="868" y="61"/>
      <point x="859" y="60"/>
      <point x="847" y="60" type="curve" smooth="yes"/>
      <point x="833" y="60"/>
      <point x="799" y="60"/>
      <point x="760" y="64" type="curve"/>
      <point x="765" y="56"/>
      <point x="768" y="43"/>
      <point x="769" y="35" type="curve"/>
      <point x="802" y="33"/>
      <point x="835" y="33"/>
      <point x="852" y="33" type="curve" smooth="yes"/>
      <point x="874" y="33"/>
      <point x="886" y="37"/>
      <point x="897" y="49" type="curve" smooth="yes"/>
      <point x="917" y="70"/>
      <point x="927" y="132"/>
      <point x="938" y="311" type="curve" smooth="yes"/>
      <point x="939" y="317"/>
      <point x="939" y="329"/>
    </contour>
    <contour>
      <point x="920" y="300" type="line"/>
      <point x="920" y="329" type="line"/>
      <point x="395" y="329" type="line"/>
      <point x="395" y="300" type="line"/>
    </contour>
    <contour>
      <point x="670" y="-68" type="line"/>
      <point x="670" y="831" type="line"/>
      <point x="640" y="831" type="line"/>
      <point x="640" y="-68" type="line"/>
    </contour>
    <contour>
      <point x="275" y="814" type="curve"/>
      <point x="246" y="827" type="line"/>
      <point x="211" y="717"/>
      <point x="149" y="570"/>
      <point x="95" y="471" type="curve"/>
      <point x="119" y="456" type="line"/>
      <point x="174" y="557"/>
      <point x="234" y="695"/>
    </contour>
    <contour>
      <point x="50" y="471" type="curve"/>
      <point x="56" y="440" type="line"/>
      <point x="118" y="447"/>
      <point x="207" y="458"/>
      <point x="287" y="470" type="curve"/>
      <point x="286" y="497" type="line"/>
      <point x="203" y="486"/>
      <point x="112" y="476"/>
    </contour>
    <contour>
      <point x="368" y="619" type="curve"/>
      <point x="340" y="634" type="line"/>
      <point x="274" y="492"/>
      <point x="179" y="326"/>
      <point x="110" y="232" type="curve"/>
      <point x="133" y="215" type="line"/>
      <point x="204" y="310"/>
      <point x="294" y="466"/>
    </contour>
    <contour>
      <point x="53" y="229" type="curve"/>
      <point x="61" y="197" type="line"/>
      <point x="152" y="211"/>
      <point x="270" y="232"/>
      <point x="368" y="252" type="curve"/>
      <point x="367" y="281" type="line"/>
      <point x="263" y="261"/>
      <point x="141" y="241"/>
    </contour>
  </outline>
</glyph>
<glyph name="uni7EBA" format="2">
  <advance width="1000" height="1000"/>
  <unicode hex="7EBA"/>
  <note>
cid31725
</note>
  <outline>
    <contour>
      <point x="683" y="628" type="line"/>
      <point x="683" y="831" type="line"/>
      <point x="654" y="831" type="line"/>
      <point x="654" y="628" type="line"/>
    </contour>
    <contour>
      <point x="941" y="618" type="line"/>
      <point x="941" y="647" type="line"/>
      <point x="408" y="647" type="line"/>
      <point x="408" y="618" type="line"/>
    </contour>
    <contour>
      <point x="867" y="408" type="line"/>
      <point x="867" y="437" type="line"/>
      <point x="574" y="437" type="line"/>
      <point x="574" y="408" type="line"/>
    </contour>
    <contour>
      <point x="884" y="437" type="curve"/>
      <point x="855" y="437" type="line"/>
      <point x="855" y="429" type="line" smooth="yes"/>
      <point x="840" y="111"/>
      <point x="824" y="-3"/>
      <point x="799" y="-30" type="curve" smooth="yes"/>
      <point x="790" y="-40"/>
      <point x="782" y="-42"/>
      <point x="763" y="-42" type="curve" smooth="yes"/>
      <point x="745" y="-42"/>
      <point x="691" y="-41"/>
      <point x="634" y="-36" type="curve"/>
      <point x="640" y="-45"/>
      <point x="642" y="-57"/>
      <point x="643" y="-65" type="curve"/>
      <point x="690" y="-69"/>
      <point x="743" y="-70"/>
      <point x="768" y="-70" type="curve" smooth="yes"/>
      <point x="794" y="-69"/>
      <point x="810" y="-65"/>
      <point x="823" y="-48" type="curve"/>
      <point x="855" y="-13"/>
      <point x="868" y="90"/>
      <point x="884" y="417" type="curve" smooth="yes"/>
      <point x="884" y="423"/>
      <point x="884" y="437"/>
    </contour>
    <contour>
      <point x="595" y="477" type="curve" smooth="yes"/>
      <point x="595" y="637" type="line"/>
      <point x="566" y="637" type="line"/>
      <point x="566" y="477" type="line" smooth="yes"/>
      <point x="566" y="318"/>
      <point x="547" y="108"/>
      <point x="364" y="-54" type="curve"/>
      <point x="372" y="-59"/>
      <point x="382" y="-67"/>
      <point x="387" y="-73" type="curve"/>
      <point x="574" y="96"/>
      <point x="595" y="305"/>
    </contour>
    <contour>
      <point x="287" y="814" type="curve"/>
      <point x="259" y="827" type="line"/>
      <point x="217" y="715"/>
      <point x="150" y="566"/>
      <point x="97" y="468" type="curve"/>
      <point x="120" y="453" type="line"/>
      <point x="176" y="551"/>
      <point x="240" y="691"/>
    </contour>
    <contour>
      <point x="50" y="471" type="curve"/>
      <point x="56" y="440" type="line"/>
      <point x="120" y="448"/>
      <point x="213" y="461"/>
      <point x="297" y="475" type="curve"/>
      <point x="295" y="502" type="line"/>
      <point x="207" y="489"/>
      <point x="113" y="477"/>
    </contour>
    <contour>
      <point x="379" y="604" type="curve"/>
      <point x="351" y="619" type="line"/>
      <point x="288" y="491"/>
      <point x="190" y="331"/>
      <point x="114" y="231" type="curve"/>
      <point x="137" y="214" type="line"/>
      <point x="216" y="317"/>
      <point x="309" y="467"/>
    </contour>
    <contour>
      <point x="53" y="229" type="curve"/>
      <point x="60" y="197" type="line"/>
      <point x="155" y="212"/>
      <point x="277" y="234"/>
      <point x="376" y="254" type="curve"/>
      <point x="374" y="283" type="line"/>
      <point x="271" y="263"/>
      <point x="147" y="243"/>
    </contour>
    <contour>
      <point x="52" y="32" type="curve"/>
      <point x="58" y="1" type="line"/>
      <point x="144" y="21"/>
      <point x="266" y="48"/>
      <point x="384" y="75" type="curve"/>
      <point x="383" y="103" type="line"/>
      <point x="259" y="76"/>
      <point x="133" y="48"/>
    </contour>
  </outline>
</glyph>
<glyph name="uni7EC7" format="2">
  <advance width="1000" height="1000"/>
  <unicode hex="7EC7"/>
  <note>
cid31738
</note>
  <outline>
    <contour>
      <point x="50" y="33" type="curve"/>
      <point x="58" y="4" type="line"/>
      <point x="140" y="22"/>
      <point x="263" y="49"/>
      <point x="378" y="75" type="curve"/>
      <point x="375" y="104" type="line"/>
      <point x="256" y="76"/>
      <point x="131" y="49"/>
    </contour>
    <contour>
      <point x="866" y="321" type="line"/>
      <point x="471" y="321" type="line"/>
      <point x="471" y="733" type="line"/>
      <point x="866" y="733" type="line"/>
    </contour>
    <contour>
      <point x="895" y="291" type="line"/>
      <point x="895" y="763" type="line"/>
      <point x="441" y="763" type="line"/>
      <point x="441" y="291" type="line"/>
    </contour>
    <contour>
      <point x="759" y="233" type="curve"/>
      <point x="735" y="222" type="line"/>
      <point x="810" y="131"/>
      <point x="895" y="4"/>
      <point x="933" y="-71" type="curve"/>
      <point x="959" y="-56" type="line"/>
      <point x="919" y="19"/>
      <point x="834" y="142"/>
    </contour>
    <contour>
      <point x="589" y="224" type="curve"/>
      <point x="561" y="231" type="line"/>
      <point x="514" y="122"/>
      <point x="437" y="18"/>
      <point x="354" y="-52" type="curve"/>
      <point x="362" y="-57"/>
      <point x="375" y="-66"/>
      <point x="379" y="-71" type="curve"/>
      <point x="460" y="1"/>
      <point x="539" y="109"/>
    </contour>
    <contour>
      <point x="287" y="814" type="curve"/>
      <point x="259" y="827" type="line"/>
      <point x="217" y="715"/>
      <point x="150" y="566"/>
      <point x="97" y="468" type="curve"/>
      <point x="120" y="453" type="line"/>
      <point x="176" y="551"/>
      <point x="240" y="691"/>
    </contour>
    <contour>
      <point x="50" y="471" type="curve"/>
      <point x="56" y="440" type="line"/>
      <point x="120" y="448"/>
      <point x="213" y="461"/>
      <point x="297" y="475" type="curve"/>
      <point x="295" y="502" type="line"/>
      <point x="207" y="489"/>
      <point x="113" y="477"/>
    </contour>
    <contour>
      <point x="379" y="604" type="curve"/>
      <point x="351" y="619" type="line"/>
      <point x="288" y="491"/>
      <point x="190" y="331"/>
      <point x="114" y="231" type="curve"/>
      <point x="137" y="214" type="line"/>
      <point x="216" y="317"/>
      <point x="309" y="467"/>
    </contour>
    <contour>
      <point x="53" y="229" type="curve"/>
      <point x="60" y="197" type="line"/>
      <point x="155" y="212"/>
      <point x="277" y="234"/>
      <point x="376" y="254" type="curve"/>
      <point x="374" y="283" type="line"/>
      <point x="271" y="263"/>
      <point x="147" y="243"/>
    </contour>
  </outline>
</glyph>
<glyph name="uni7ED9" format="2">
  <advance width="1000" height="1000"/>
  <unicode hex="7ED9"/>
  <note>
cid31748
</note>
  <outline>
    <contour>
      <point x="838" y="492" type="line"/>
      <point x="502" y="492" type="line"/>
      <point x="502" y="463" type="line"/>
      <point x="838" y="463" type="line"/>
    </contour>
    <contour>
      <point x="862" y="21" type="line"/>
      <point x="477" y="21" type="line"/>
      <point x="477" y="-9" type="line"/>
      <point x="862" y="-9" type="line"/>
    </contour>
    <contour>
      <point x="662" y="793" type="curve"/>
      <point x="727" y="684"/>
      <point x="849" y="547"/>
      <point x="955" y="455" type="curve"/>
      <point x="960" y="463"/>
      <point x="968" y="474"/>
      <point x="976" y="481" type="curve"/>
      <point x="871" y="567"/>
      <point x="748" y="706"/>
      <point x="675" y="827" type="curve"/>
      <point x="643" y="827" type="line"/>
      <point x="588" y="709"/>
      <point x="472" y="566"/>
      <point x="357" y="474" type="curve"/>
      <point x="364" y="468"/>
      <point x="374" y="457"/>
      <point x="378" y="450" type="curve"/>
      <point x="494" y="546"/>
      <point x="606" y="684"/>
    </contour>
    <contour>
      <point x="877" y="311" type="line"/>
      <point x="463" y="311" type="line"/>
      <point x="463" y="-70" type="line"/>
      <point x="492" y="-70" type="line"/>
      <point x="492" y="281" type="line"/>
      <point x="848" y="281" type="line"/>
      <point x="848" y="-66" type="line"/>
      <point x="877" y="-66" type="line"/>
    </contour>
    <contour>
      <point x="287" y="814" type="curve"/>
      <point x="259" y="827" type="line"/>
      <point x="217" y="715"/>
      <point x="150" y="566"/>
      <point x="97" y="468" type="curve"/>
      <point x="120" y="453" type="line"/>
      <point x="176" y="551"/>
      <point x="240" y="691"/>
    </contour>
    <contour>
      <point x="50" y="471" type="curve"/>
      <point x="56" y="440" type="line"/>
      <point x="120" y="448"/>
      <point x="213" y="461"/>
      <point x="297" y="475" type="curve"/>
      <point x="295" y="502" type="line"/>
      <point x="207" y="489"/>
      <point x="113" y="477"/>
    </contour>
    <contour>
      <point x="379" y="604" type="curve"/>
      <point x="351" y="619" type="line"/>
      <point x="288" y="491"/>
      <point x="190" y="331"/>
      <point x="114" y="231" type="curve"/>
      <point x="137" y="214" type="line"/>
      <point x="216" y="317"/>
      <point x="309" y="467"/>
    </contour>
    <contour>
      <point x="53" y="229" type="curve"/>
      <point x="60" y="197" type="line"/>
      <point x="155" y="212"/>
      <point x="277" y="234"/>
      <point x="376" y="254" type="curve"/>
      <point x="374" y="283" type="line"/>
      <point x="271" y="263"/>
      <point x="147" y="243"/>
    </contour>
    <contour>
      <point x="53" y="38" type="curve"/>
      <point x="60" y="8" type="line"/>
      <point x="147" y="30"/>
      <point x="268" y="59"/>
      <point x="385" y="87" type="curve"/>
      <point x="383" y="116" type="line"/>
      <point x="259" y="86"/>
      <point x="135" y="56"/>
    </contour>
  </outline>
</glyph>
<glyph name="uni7EDF" format="2">
  <advance width="1000" height="1000"/>
  <unicode hex="7EDF"/>
  <note>
cid31762
</note>
  <outline>
    <contour>
      <point x="672" y="672" type="line"/>
      <point x="672" y="831" type="line"/>
      <point x="642" y="831" type="line"/>
      <point x="642" y="672" type="line"/>
    </contour>
    <contour>
      <point x="623" y="657" type="curve"/>
      <point x="589" y="668" type="line"/>
      <point x="562" y="583"/>
      <point x="517" y="474"/>
      <point x="480" y="405" type="curve"/>
      <point x="507" y="395" type="line"/>
      <point x="543" y="461"/>
      <point x="588" y="563"/>
    </contour>
    <contour>
      <point x="771" y="579" type="curve"/>
      <point x="746" y="564" type="line"/>
      <point x="813" y="492"/>
      <point x="885" y="392"/>
      <point x="918" y="329" type="curve"/>
      <point x="944" y="346" type="line"/>
      <point x="912" y="409"/>
      <point x="838" y="507"/>
    </contour>
    <contour>
      <point x="934" y="654" type="line"/>
      <point x="934" y="683" type="line"/>
      <point x="391" y="683" type="line"/>
      <point x="391" y="654" type="line"/>
    </contour>
    <contour>
      <point x="392" y="414" type="curve"/>
      <point x="395" y="382" type="line"/>
      <point x="518" y="389"/>
      <point x="700" y="400"/>
      <point x="876" y="411" type="curve"/>
      <point x="877" y="439" type="line"/>
      <point x="694" y="428"/>
      <point x="510" y="418"/>
    </contour>
    <contour>
      <point x="763" y="-9" type="curve" smooth="yes"/>
      <point x="763" y="349" type="line"/>
      <point x="733" y="349" type="line"/>
      <point x="733" y="-9" type="line" smooth="yes"/>
      <point x="733" y="-55"/>
      <point x="747" y="-64"/>
      <point x="796" y="-64" type="curve" smooth="yes"/>
      <point x="807" y="-64"/>
      <point x="891" y="-64"/>
      <point x="902" y="-64" type="curve" smooth="yes"/>
      <point x="950" y="-64"/>
      <point x="959" y="-35"/>
      <point x="962" y="81" type="curve"/>
      <point x="953" y="82"/>
      <point x="941" y="87"/>
      <point x="933" y="94" type="curve"/>
      <point x="930" y="-17"/>
      <point x="926" y="-34"/>
      <point x="900" y="-34" type="curve" smooth="yes"/>
      <point x="881" y="-34"/>
      <point x="810" y="-34"/>
      <point x="797" y="-34" type="curve" smooth="yes"/>
      <point x="768" y="-34"/>
      <point x="763" y="-30"/>
    </contour>
    <contour>
      <point x="577" y="347" type="curve"/>
      <point x="547" y="347" type="line"/>
      <point x="538" y="133"/>
      <point x="503" y="9"/>
      <point x="334" y="-54" type="curve"/>
      <point x="340" y="-59"/>
      <point x="350" y="-68"/>
      <point x="354" y="-75" type="curve"/>
      <point x="528" y="-7"/>
      <point x="567" y="122"/>
    </contour>
    <contour>
      <point x="275" y="814" type="curve"/>
      <point x="246" y="827" type="line"/>
      <point x="211" y="717"/>
      <point x="149" y="570"/>
      <point x="95" y="471" type="curve"/>
      <point x="119" y="456" type="line"/>
      <point x="174" y="557"/>
      <point x="234" y="695"/>
    </contour>
    <contour>
      <point x="50" y="471" type="curve"/>
      <point x="56" y="440" type="line"/>
      <point x="118" y="447"/>
      <point x="207" y="458"/>
      <point x="287" y="470" type="curve"/>
      <point x="286" y="497" type="line"/>
      <point x="203" y="486"/>
      <point x="112" y="476"/>
    </contour>
    <contour>
      <point x="368" y="619" type="curve"/>
      <point x="340" y="634" type="line"/>
      <point x="274" y="492"/>
      <point x="179" y="326"/>
      <point x="110" y="232" type="curve"/>
      <point x="133" y="215" type="line"/>
      <point x="204" y="310"/>
      <point x="294" y="466"/>
    </contour>
    <contour>
      <point x="53" y="229" type="curve"/>
      <point x="61" y="197" type="line"/>
      <point x="152" y="211"/>
      <point x="270" y="232"/>
      <point x="368" y="252" type="curve"/>
      <point x="367" y="281" type="line"/>
      <point x="263" y="261"/>
      <point x="141" y="241"/>
    </contour>
    <contour>
      <point x="49" y="38" type="curve"/>
      <point x="57" y="8" type="line"/>
      <point x="137" y="26"/>
      <point x="257" y="55"/>
      <point x="369" y="83" type="curve"/>
      <point x="366" y="112" type="line"/>
      <point x="248" y="84"/>
      <point x="126" y="55"/>
    </contour>
  </outline>
</glyph>
<glyph name="uni7F06" format="2">
  <advance width="1000" height="1000"/>
  <unicode hex="7F06"/>
  <note>
cid31801
</note>
  <outline>
    <contour>
      <point x="944" y="693" type="line"/>
      <point x="944" y="722" type="line"/>
      <point x="722" y="722" type="line"/>
      <point x="722" y="693" type="line"/>
    </contour>
    <contour>
      <point x="775" y="817" type="curve"/>
      <point x="745" y="823" type="line"/>
      <point x="724" y="742"/>
      <point x="683" y="639"/>
      <point x="629" y="572" type="curve"/>
      <point x="636" y="568"/>
      <point x="647" y="559"/>
      <point x="652" y="554" type="curve"/>
      <point x="707" y="623"/>
      <point x="751" y="730"/>
    </contour>
    <contour>
      <point x="760" y="614" type="curve"/>
      <point x="741" y="592" type="line"/>
      <point x="791" y="565"/>
      <point x="848" y="521"/>
      <point x="877" y="490" type="curve"/>
      <point x="898" y="515" type="line"/>
      <point x="868" y="544"/>
      <point x="812" y="584"/>
    </contour>
    <contour>
      <point x="442" y="512" type="line"/>
      <point x="442" y="794" type="line"/>
      <point x="413" y="794" type="line"/>
      <point x="413" y="512" type="line"/>
    </contour>
    <contour>
      <point x="685" y="-3" type="curve" smooth="yes"/>
      <point x="685" y="146" type="line"/>
      <point x="656" y="146" type="line"/>
      <point x="656" y="-3" type="line" smooth="yes"/>
      <point x="656" y="-47"/>
      <point x="672" y="-54"/>
      <point x="731" y="-54" type="curve" smooth="yes"/>
      <point x="744" y="-54"/>
      <point x="874" y="-54"/>
      <point x="888" y="-54" type="curve" smooth="yes"/>
      <point x="937" y="-54"/>
      <point x="948" y="-34"/>
      <point x="952" y="54" type="curve"/>
      <point x="943" y="57"/>
      <point x="931" y="61"/>
      <point x="923" y="67" type="curve"/>
      <point x="920" y="-16"/>
      <point x="916" y="-25"/>
      <point x="884" y="-25" type="curve" smooth="yes"/>
      <point x="859" y="-25"/>
      <point x="748" y="-25"/>
      <point x="730" y="-25" type="curve" smooth="yes"/>
      <point x="691" y="-25"/>
      <point x="685" y="-22"/>
    </contour>
    <contour>
      <point x="866" y="107" type="line"/>
      <point x="866" y="418" type="line"/>
      <point x="436" y="418" type="line"/>
      <point x="436" y="107" type="line"/>
      <point x="466" y="107" type="line"/>
      <point x="466" y="388" type="line"/>
      <point x="836" y="388" type="line"/>
      <point x="836" y="107" type="line"/>
    </contour>
    <contour>
      <point x="581" y="473" type="line"/>
      <point x="581" y="830" type="line"/>
      <point x="552" y="830" type="line"/>
      <point x="552" y="473" type="line"/>
    </contour>
    <contour>
      <point x="664" y="331" type="curve"/>
      <point x="634" y="331" type="line"/>
      <point x="627" y="75"/>
      <point x="581" y="-2"/>
      <point x="326" y="-44" type="curve"/>
      <point x="331" y="-50"/>
      <point x="339" y="-63"/>
      <point x="342" y="-69" type="curve"/>
      <point x="604" y="-23"/>
      <point x="655" y="61"/>
    </contour>
    <contour>
      <point x="270" y="814" type="curve"/>
      <point x="241" y="827" type="line"/>
      <point x="203" y="711"/>
      <point x="141" y="564"/>
      <point x="90" y="470" type="curve"/>
      <point x="114" y="457" type="line"/>
      <point x="166" y="552"/>
      <point x="226" y="689"/>
    </contour>
    <contour>
      <point x="50" y="469" type="curve"/>
      <point x="56" y="438" type="line"/>
      <point x="113" y="445"/>
      <point x="198" y="457"/>
      <point x="277" y="470" type="curve"/>
      <point x="276" y="497" type="line"/>
      <point x="193" y="486"/>
      <point x="106" y="475"/>
    </contour>
    <contour>
      <point x="358" y="619" type="curve"/>
      <point x="330" y="634" type="line"/>
      <point x="266" y="495"/>
      <point x="171" y="329"/>
      <point x="100" y="232" type="curve"/>
      <point x="123" y="215" type="line"/>
      <point x="196" y="312"/>
      <point x="286" y="468"/>
    </contour>
    <contour>
      <point x="54" y="229" type="curve"/>
      <point x="60" y="197" type="line"/>
      <point x="146" y="211"/>
      <point x="264" y="233"/>
      <point x="366" y="254" type="curve"/>
      <point x="365" y="283" type="line"/>
      <point x="256" y="261"/>
      <point x="136" y="241"/>
    </contour>
    <contour>
      <point x="52" y="38" type="curve"/>
      <point x="61" y="8" type="line"/>
      <point x="141" y="26"/>
      <point x="261" y="56"/>
      <point x="373" y="85" type="curve"/>
      <point x="371" y="114" type="line"/>
      <point x="252" y="84"/>
      <point x="129" y="55"/>
    </contour>
  </outline>
</glyph>
<glyph name="uni8138" format="2">
  <advance width="1000"/>
  <unicode hex="8138"/>
  <note>
cid32890
</note>
  <outline>
    <contour>
      <point x="455" y="336" type="curve"/>
      <point x="428" y="328" type="line"/>
      <point x="466" y="246"/>
      <point x="500" y="143"/>
      <point x="510" y="79" type="curve"/>
      <point x="538" y="90" type="line"/>
      <point x="527" y="153"/>
      <point x="493" y="254"/>
    </contour>
    <contour>
      <point x="639" y="371" type="curve"/>
      <point x="611" y="366" type="line"/>
      <point x="635" y="280"/>
      <point x="655" y="173"/>
      <point x="660" y="107" type="curve"/>
      <point x="689" y="112" type="line"/>
      <point x="683" y="179"/>
      <point x="662" y="286"/>
    </contour>
    <contour>
      <point x="903" y="339" type="curve"/>
      <point x="874" y="352" type="line"/>
      <point x="831" y="224"/>
      <point x="769" y="71"/>
      <point x="724" y="-19" type="curve"/>
      <point x="749" y="-31" type="line"/>
      <point x="795" y="61"/>
      <point x="854" y="204"/>
    </contour>
    <contour>
      <point x="937" y="-10" type="line"/>
      <point x="371" y="-10" type="line"/>
      <point x="371" y="-40" type="line"/>
      <point x="937" y="-40" type="line"/>
    </contour>
    <contour>
      <point x="817" y="466" type="line"/>
      <point x="817" y="495" type="line"/>
      <point x="480" y="495" type="line"/>
      <point x="480" y="466" type="line"/>
    </contour>
    <contour>
      <point x="649" y="797" type="curve"/>
      <point x="714" y="669"/>
      <point x="828" y="546"/>
      <point x="935" y="456" type="curve"/>
      <point x="939" y="463"/>
      <point x="948" y="474"/>
      <point x="955" y="481" type="curve"/>
      <point x="850" y="562"/>
      <point x="730" y="690"/>
      <point x="663" y="827" type="curve"/>
      <point x="631" y="827" type="line"/>
      <point x="578" y="694"/>
      <point x="468" y="562"/>
      <point x="353" y="473" type="curve"/>
      <point x="360" y="467"/>
      <point x="369" y="457"/>
      <point x="373" y="451" type="curve"/>
      <point x="487" y="545"/>
      <point x="595" y="674"/>
    </contour>
    <contour>
      <point x="337" y="763" type="line"/>
      <point x="337" y="792" type="line"/>
      <point x="133" y="792" type="line"/>
      <point x="133" y="763" type="line"/>
    </contour>
    <contour>
      <point x="337" y="522" type="line"/>
      <point x="337" y="551" type="line"/>
      <point x="133" y="551" type="line"/>
      <point x="133" y="522" type="line"/>
    </contour>
    <contour>
      <point x="338" y="275" type="line"/>
      <point x="338" y="304" type="line"/>
      <point x="131" y="304" type="line"/>
      <point x="131" y="275" type="line"/>
    </contour>
    <contour>
      <point x="148" y="437" type="curve" smooth="yes"/>
      <point x="148" y="792" type="line"/>
      <point x="119" y="792" type="line"/>
      <point x="119" y="437" type="line" smooth="yes"/>
      <point x="119" y="289"/>
      <point x="113" y="89"/>
      <point x="39" y="-55" type="curve"/>
      <point x="47" y="-58"/>
      <point x="59" y="-65"/>
      <point x="65" y="-71" type="curve"/>
      <point x="138" y="76"/>
      <point x="148" y="286"/>
    </contour>
    <contour>
      <point x="352" y="-21" type="curve" smooth="yes"/>
      <point x="352" y="792" type="line"/>
      <point x="323" y="792" type="line"/>
      <point x="323" y="-22" type="line" smooth="yes"/>
      <point x="323" y="-37"/>
      <point x="317" y="-41"/>
      <point x="302" y="-42" type="curve" smooth="yes"/>
      <point x="289" y="-43"/>
      <point x="243" y="-43"/>
      <point x="186" y="-42" type="curve"/>
      <point x="191" y="-51"/>
      <point x="197" y="-64"/>
      <point x="199" y="-70" type="curve"/>
      <point x="268" y="-71"/>
      <point x="304" y="-70"/>
      <point x="324" y="-65" type="curve" smooth="yes"/>
      <point x="343" y="-60"/>
      <point x="352" y="-48"/>
    </contour>
  </outline>
</glyph>
<glyph name="uni8A00" format="2">
  <advance width="1000" height="1000"/>
  <unicode hex="8A00"/>
  <note>
cid37548
</note>
  <outline>
    <contour>
      <point x="779" y="-19" type="line"/>
      <point x="779" y="10" type="line"/>
      <point x="223" y="10" type="line"/>
      <point x="223" y="-19" type="line"/>
    </contour>
    <contour>
      <point x="783" y="354" type="line"/>
      <point x="783" y="384" type="line"/>
      <point x="214" y="384" type="line"/>
      <point x="214" y="354" type="line"/>
    </contour>
    <contour>
      <point x="783" y="500" type="line"/>
      <point x="783" y="529" type="line"/>
      <point x="214" y="529" type="line"/>
      <point x="214" y="500" type="line"/>
    </contour>
    <contour>
      <point x="794" y="-67" type="line"/>
      <point x="794" y="235" type="line"/>
      <point x="207" y="235" type="line"/>
      <point x="207" y="-70" type="line"/>
      <point x="236" y="-70" type="line"/>
      <point x="236" y="206" type="line"/>
      <point x="765" y="206" type="line"/>
      <point x="765" y="-67" type="line"/>
    </contour>
    <contour>
      <point x="945" y="644" type="line"/>
      <point x="945" y="673" type="line"/>
      <point x="62" y="673" type="line"/>
      <point x="62" y="644" type="line"/>
    </contour>
    <contour>
      <point x="516" y="660" type="line"/>
      <point x="516" y="832" type="line"/>
      <point x="485" y="832" type="line"/>
      <point x="485" y="660" type="line"/>
    </contour>
  </outline>
</glyph>
<glyph name="uni8BE2" format="2">
  <advance width="1000" height="1000"/>
  <unicode hex="8BE2"/>
  <note>
cid38498
</note>
  <outline>
    <contour>
      <point x="557" y="824" type="curve"/>
      <point x="526" y="831" type="line"/>
      <point x="482" y="697"/>
      <point x="412" y="566"/>
      <point x="329" y="478" type="curve"/>
      <point x="338" y="474"/>
      <point x="352" y="466"/>
      <point x="358" y="462" type="curve"/>
      <point x="436" y="551"/>
      <point x="509" y="684"/>
    </contour>
    <contour>
      <point x="912" y="644" type="line"/>
      <point x="912" y="673" type="line"/>
      <point x="483" y="673" type="line"/>
      <point x="469" y="644" type="line"/>
    </contour>
    <contour>
      <point x="934" y="673" type="curve"/>
      <point x="904" y="673" type="line"/>
      <point x="904" y="665" type="line" smooth="yes"/>
      <point x="886" y="181"/>
      <point x="866" y="13"/>
      <point x="829" y="-26" type="curve"/>
      <point x="819" y="-39"/>
      <point x="808" y="-41"/>
      <point x="788" y="-41" type="curve" smooth="yes"/>
      <point x="767" y="-41"/>
      <point x="707" y="-40"/>
      <point x="641" y="-35" type="curve"/>
      <point x="647" y="-43"/>
      <point x="649" y="-56"/>
      <point x="650" y="-65" type="curve"/>
      <point x="705" y="-69"/>
      <point x="762" y="-71"/>
      <point x="792" y="-70" type="curve" smooth="yes"/>
      <point x="821" y="-69"/>
      <point x="840" y="-64"/>
      <point x="857" y="-43" type="curve" smooth="yes"/>
      <point x="898" y="4"/>
      <point x="915" y="162"/>
      <point x="933" y="650" type="curve"/>
      <point x="934" y="657"/>
      <point x="934" y="673"/>
    </contour>
    <contour>
      <point x="718" y="312" type="line"/>
      <point x="718" y="341" type="line"/>
      <point x="466" y="341" type="line"/>
      <point x="466" y="312" type="line"/>
    </contour>
    <contour>
      <point x="733" y="131" type="line"/>
      <point x="733" y="520" type="line"/>
      <point x="468" y="520" type="line"/>
      <point x="468" y="490" type="line"/>
      <point x="704" y="490" type="line"/>
      <point x="704" y="161" type="line"/>
      <point x="468" y="161" type="line"/>
      <point x="468" y="131" type="line"/>
    </contour>
    <contour>
      <point x="482" y="65" type="line"/>
      <point x="482" y="520" type="line"/>
      <point x="453" y="520" type="line"/>
      <point x="453" y="65" type="line"/>
    </contour>
    <contour>
      <point x="131" y="807" type="curve"/>
      <point x="111" y="788" type="line"/>
      <point x="175" y="739"/>
      <point x="237" y="676"/>
      <point x="271" y="624" type="curve"/>
      <point x="292" y="645" type="line"/>
      <point x="257" y="696"/>
      <point x="195" y="758"/>
    </contour>
    <contour>
      <point x="225" y="475" type="line"/>
      <point x="225" y="505" type="line"/>
      <point x="50" y="505" type="line"/>
      <point x="50" y="475" type="line"/>
    </contour>
    <contour>
      <point x="239" y="26" type="line"/>
      <point x="239" y="505" type="line"/>
      <point x="210" y="505" type="line"/>
      <point x="210" y="6" type="line"/>
    </contour>
    <contour>
      <point x="140" y="-15" type="curve"/>
      <point x="158" y="-40" type="line"/>
      <point x="220" y="-4"/>
      <point x="305" y="48"/>
      <point x="379" y="94" type="curve"/>
      <point x="368" y="119" type="line"/>
      <point x="290" y="71"/>
      <point x="202" y="19"/>
    </contour>
  </outline>
</glyph>
<glyph name="uni8F66" format="2">
  <advance width="1000"/>
  <unicode hex="8F66"/>
  <note>
cid39922
</note>
  <outline>
    <contour>
      <point x="914" y="681" type="line"/>
      <point x="84" y="681" type="line"/>
      <point x="84" y="652" type="line"/>
      <point x="914" y="652" type="line"/>
    </contour>
    <contour>
      <point x="930" y="168" type="line"/>
      <point x="74" y="168" type="line"/>
      <point x="74" y="138" type="line"/>
      <point x="930" y="138" type="line"/>
    </contour>
    <contour>
      <point x="525" y="554" type="line"/>
      <point x="496" y="554" type="line"/>
      <point x="496" y="-71" type="line"/>
      <point x="525" y="-71" type="line"/>
    </contour>
    <contour>
      <point x="849" y="390" type="line"/>
      <point x="196" y="390" type="line"/>
      <point x="196" y="361" type="line"/>
      <point x="849" y="361" type="line"/>
    </contour>
    <contour>
      <point x="392" y="825" type="curve"/>
      <point x="362" y="830" type="line"/>
      <point x="308" y="654"/>
      <point x="226" y="456"/>
      <point x="149" y="317" type="curve"/>
      <point x="179" y="312" type="line"/>
      <point x="254" y="448"/>
      <point x="336" y="646"/>
    </contour>
  </outline>
</glyph>
<glyph name="uni8F67" format="2">
  <advance width="1000" height="1000"/>
  <unicode hex="8F67"/>
  <note>
cid39921
</note>
  <outline>
    <contour>
      <point x="525" y="652" type="line"/>
      <point x="525" y="682" type="line"/>
      <point x="56" y="682" type="line"/>
      <point x="56" y="652" type="line"/>
    </contour>
    <contour>
      <point x="336" y="-70" type="line"/>
      <point x="336" y="553" type="line"/>
      <point x="307" y="553" type="line"/>
      <point x="307" y="-70" type="line"/>
    </contour>
    <contour>
      <point x="52" y="149" type="curve"/>
      <point x="60" y="118" type="line"/>
      <point x="182" y="136"/>
      <point x="357" y="164"/>
      <point x="525" y="191" type="curve"/>
      <point x="524" y="219" type="line"/>
      <point x="348" y="192"/>
      <point x="168" y="165"/>
    </contour>
    <contour>
      <point x="522" y="366" type="line"/>
      <point x="522" y="395" type="line"/>
      <point x="134" y="395" type="line"/>
      <point x="134" y="366" type="line"/>
    </contour>
    <contour>
      <point x="251" y="825" type="curve"/>
      <point x="221" y="830" type="line"/>
      <point x="189" y="654"/>
      <point x="139" y="456"/>
      <point x="89" y="317" type="curve"/>
      <point x="120" y="312" type="line"/>
      <point x="168" y="448"/>
      <point x="219" y="646"/>
    </contour>
    <contour>
      <point x="625" y="33" type="curve" smooth="yes"/>
      <point x="625" y="819" type="line"/>
      <point x="596" y="819" type="line"/>
      <point x="596" y="35" type="line" smooth="yes"/>
      <point x="596" y="-39"/>
      <point x="615" y="-56"/>
      <point x="686" y="-56" type="curve" smooth="yes"/>
      <point x="702" y="-56"/>
      <point x="835" y="-56"/>
      <point x="853" y="-56" type="curve" smooth="yes"/>
      <point x="932" y="-56"/>
      <point x="941" y="1"/>
      <point x="948" y="182" type="curve"/>
      <point x="938" y="185"/>
      <point x="927" y="190"/>
      <point x="918" y="198" type="curve"/>
      <point x="912" y="19"/>
      <point x="907" y="-27"/>
      <point x="854" y="-27" type="curve" smooth="yes"/>
      <point x="822" y="-27"/>
      <point x="707" y="-27"/>
      <point x="684" y="-27" type="curve" smooth="yes"/>
      <point x="636" y="-27"/>
      <point x="625" y="-16"/>
    </contour>
  </outline>
</glyph>
<glyph name="uni8F6E" format="2">
  <advance width="1000" height="1000"/>
  <unicode hex="8F6E"/>
  <note>
cid39928
</note>
  <outline>
    <contour>
      <point x="417" y="652" type="line"/>
      <point x="417" y="682" type="line"/>
      <point x="56" y="682" type="line"/>
      <point x="56" y="652" type="line"/>
    </contour>
    <contour>
      <point x="277" y="379" type="line"/>
      <point x="277" y="556" type="line"/>
      <point x="247" y="556" type="line"/>
      <point x="247" y="379" type="line"/>
    </contour>
    <contour>
      <point x="52" y="149" type="curve"/>
      <point x="61" y="118" type="line"/>
      <point x="153" y="137"/>
      <point x="296" y="166"/>
      <point x="431" y="195" type="curve"/>
      <point x="428" y="223" type="line"/>
      <point x="288" y="194"/>
      <point x="143" y="165"/>
    </contour>
    <contour>
      <point x="409" y="366" type="line"/>
      <point x="409" y="395" type="line"/>
      <point x="97" y="395" type="line"/>
      <point x="97" y="366" type="line"/>
    </contour>
    <contour>
      <point x="684" y="795" type="curve"/>
      <point x="741" y="683"/>
      <point x="842" y="560"/>
      <point x="937" y="477" type="curve"/>
      <point x="941" y="485"/>
      <point x="951" y="496"/>
      <point x="957" y="503" type="curve"/>
      <point x="865" y="576"/>
      <point x="760" y="704"/>
      <point x="698" y="827" type="curve"/>
      <point x="667" y="827" type="line"/>
      <point x="619" y="704"/>
      <point x="518" y="566"/>
      <point x="413" y="482" type="curve"/>
      <point x="420" y="475"/>
      <point x="428" y="467"/>
      <point x="433" y="460" type="curve"/>
      <point x="539" y="547"/>
      <point x="635" y="683"/>
    </contour>
    <contour>
      <point x="226" y="825" type="curve"/>
      <point x="196" y="830" type="line"/>
      <point x="164" y="654"/>
      <point x="114" y="456"/>
      <point x="64" y="317" type="curve"/>
      <point x="95" y="312" type="line"/>
      <point x="143" y="448"/>
      <point x="194" y="646"/>
    </contour>
    <contour>
      <point x="277" y="-70" type="line"/>
      <point x="277" y="379" type="line"/>
      <point x="247" y="379" type="line"/>
      <point x="247" y="-70" type="line"/>
    </contour>
    <contour>
      <point x="866" y="375" type="curve"/>
      <point x="844" y="398" type="line"/>
      <point x="766" y="350"/>
      <point x="644" y="296"/>
      <point x="526" y="258" type="curve"/>
      <point x="530" y="251"/>
      <point x="536" y="241"/>
      <point x="538" y="234" type="curve"/>
      <point x="657" y="272"/>
      <point x="784" y="326"/>
    </contour>
    <contour>
      <point x="543" y="17" type="curve" smooth="yes"/>
      <point x="543" y="473" type="line"/>
      <point x="514" y="473" type="line"/>
      <point x="514" y="18" type="line" smooth="yes"/>
      <point x="514" y="-47"/>
      <point x="537" y="-61"/>
      <point x="617" y="-61" type="curve" smooth="yes"/>
      <point x="635" y="-61"/>
      <point x="802" y="-61"/>
      <point x="822" y="-61" type="curve" smooth="yes"/>
      <point x="901" y="-61"/>
      <point x="913" y="-22"/>
      <point x="919" y="113" type="curve"/>
      <point x="910" y="115"/>
      <point x="898" y="121"/>
      <point x="890" y="127" type="curve"/>
      <point x="885" y="-4"/>
      <point x="876" y="-31"/>
      <point x="823" y="-31" type="curve" smooth="yes"/>
      <point x="784" y="-31"/>
      <point x="643" y="-31"/>
      <point x="614" y="-31" type="curve" smooth="yes"/>
      <point x="555" y="-31"/>
      <point x="543" y="-21"/>
    </contour>
  </outline>
</glyph>
<glyph name="uni8F93" format="2">
  <advance width="1000" height="1000"/>
  <unicode hex="8F93"/>
  <note>
cid39965
</note>
  <outline>
    <contour>
      <point x="363" y="652" type="line"/>
      <point x="363" y="682" type="line"/>
      <point x="58" y="682" type="line"/>
      <point x="58" y="652" type="line"/>
    </contour>
    <contour>
      <point x="246" y="380" type="line"/>
      <point x="246" y="556" type="line"/>
      <point x="216" y="556" type="line"/>
      <point x="216" y="380" type="line"/>
    </contour>
    <contour>
      <point x="52" y="149" type="curve"/>
      <point x="62" y="119" type="line"/>
      <point x="145" y="140"/>
      <point x="263" y="173"/>
      <point x="369" y="204" type="curve"/>
      <point x="365" y="231" type="line"/>
      <point x="252" y="200"/>
      <point x="132" y="168"/>
    </contour>
    <contour>
      <point x="354" y="366" type="line"/>
      <point x="354" y="395" type="line"/>
      <point x="98" y="395" type="line"/>
      <point x="98" y="366" type="line"/>
    </contour>
    <contour>
      <point x="826" y="535" type="line"/>
      <point x="826" y="565" type="line"/>
      <point x="496" y="565" type="line"/>
      <point x="496" y="535" type="line"/>
    </contour>
    <contour>
      <point x="616" y="260" type="line"/>
      <point x="616" y="289" type="line"/>
      <point x="425" y="289" type="line"/>
      <point x="425" y="260" type="line"/>
    </contour>
    <contour>
      <point x="616" y="110" type="line"/>
      <point x="616" y="139" type="line"/>
      <point x="425" y="139" type="line"/>
      <point x="425" y="110" type="line"/>
    </contour>
    <contour>
      <point x="629" y="-26" type="curve" smooth="yes"/>
      <point x="629" y="437" type="line"/>
      <point x="600" y="437" type="line"/>
      <point x="600" y="-27" type="line" smooth="yes"/>
      <point x="600" y="-37"/>
      <point x="598" y="-40"/>
      <point x="588" y="-41" type="curve" smooth="yes"/>
      <point x="578" y="-41"/>
      <point x="545" y="-41"/>
      <point x="504" y="-40" type="curve"/>
      <point x="508" y="-48"/>
      <point x="513" y="-60"/>
      <point x="515" y="-69" type="curve"/>
      <point x="564" y="-69"/>
      <point x="592" y="-68"/>
      <point x="609" y="-64" type="curve"/>
      <point x="625" y="-58"/>
      <point x="629" y="-48"/>
    </contour>
    <contour>
      <point x="620" y="408" type="line"/>
      <point x="620" y="437" type="line"/>
      <point x="412" y="437" type="line"/>
      <point x="412" y="-70" type="line"/>
      <point x="442" y="-70" type="line"/>
      <point x="442" y="408" type="line"/>
    </contour>
    <contour>
      <point x="740" y="84" type="line"/>
      <point x="740" y="420" type="line"/>
      <point x="710" y="420" type="line"/>
      <point x="710" y="84" type="line"/>
    </contour>
    <contour>
      <point x="652" y="794" type="curve"/>
      <point x="722" y="693"/>
      <point x="837" y="587"/>
      <point x="943" y="520" type="curve"/>
      <point x="947" y="528"/>
      <point x="955" y="539"/>
      <point x="961" y="545" type="curve"/>
      <point x="858" y="607"/>
      <point x="737" y="716"/>
      <point x="665" y="824" type="curve"/>
      <point x="636" y="824" type="line"/>
      <point x="581" y="719"/>
      <point x="467" y="607"/>
      <point x="352" y="536" type="curve"/>
      <point x="359" y="530"/>
      <point x="368" y="520"/>
      <point x="372" y="513" type="curve"/>
      <point x="488" y="587"/>
      <point x="595" y="699"/>
    </contour>
    <contour>
      <point x="900" y="-25" type="curve" smooth="yes"/>
      <point x="900" y="449" type="line"/>
      <point x="870" y="449" type="line"/>
      <point x="870" y="-25" type="line" smooth="yes"/>
      <point x="870" y="-37"/>
      <point x="868" y="-41"/>
      <point x="856" y="-42" type="curve" smooth="yes"/>
      <point x="843" y="-43"/>
      <point x="803" y="-43"/>
      <point x="751" y="-41" type="curve"/>
      <point x="755" y="-50"/>
      <point x="760" y="-62"/>
      <point x="763" y="-71" type="curve"/>
      <point x="821" y="-71"/>
      <point x="857" y="-71"/>
      <point x="875" y="-65" type="curve" smooth="yes"/>
      <point x="893" y="-60"/>
      <point x="900" y="-50"/>
    </contour>
    <contour>
      <point x="207" y="825" type="curve"/>
      <point x="177" y="830" type="line"/>
      <point x="150" y="654"/>
      <point x="105" y="456"/>
      <point x="59" y="317" type="curve"/>
      <point x="90" y="312" type="line"/>
      <point x="134" y="448"/>
      <point x="180" y="646"/>
    </contour>
    <contour>
      <point x="246" y="-70" type="line"/>
      <point x="246" y="380" type="line"/>
      <point x="216" y="380" type="line"/>
      <point x="216" y="-70" type="line"/>
    </contour>
  </outline>
</glyph>
<glyph name="uni8FB9" format="2">
  <advance width="1000"/>
  <unicode hex="8FB9"/>
  <note>
cid40038
</note>
  <outline>
    <contour>
      <point x="217" y="91" type="line"/>
      <point x="246" y="91" type="line"/>
      <point x="246" y="431" type="line"/>
      <point x="54" y="431" type="line"/>
      <point x="54" y="402" type="line"/>
      <point x="217" y="402" type="line"/>
    </contour>
    <contour>
      <point x="246" y="105" type="curve"/>
      <point x="220" y="105" type="line"/>
      <point x="164" y="55"/>
      <point x="99" y="2"/>
      <point x="49" y="-34" type="curve"/>
      <point x="69" y="-63" type="line"/>
      <point x="123" y="-18"/>
      <point x="180" y="30"/>
      <point x="232" y="78" type="curve"/>
      <point x="295" y="-3"/>
      <point x="392" y="-45"/>
      <point x="530" y="-50" type="curve" smooth="yes"/>
      <point x="632" y="-53"/>
      <point x="844" y="-51"/>
      <point x="942" y="-48" type="curve"/>
      <point x="944" y="-38"/>
      <point x="949" y="-24"/>
      <point x="954" y="-17" type="curve"/>
      <point x="852" y="-22"/>
      <point x="629" y="-25"/>
      <point x="528" y="-21" type="curve" smooth="yes"/>
      <point x="401" y="-17"/>
      <point x="300" y="24"/>
    </contour>
    <contour>
      <point x="95" y="805" type="curve"/>
      <point x="74" y="787" type="line"/>
      <point x="144" y="743"/>
      <point x="222" y="675"/>
      <point x="256" y="625" type="curve"/>
      <point x="279" y="645" type="line"/>
      <point x="243" y="695"/>
      <point x="166" y="762"/>
    </contour>
    <contour>
      <point x="889" y="610" type="line"/>
      <point x="889" y="639" type="line"/>
      <point x="344" y="639" type="line"/>
      <point x="344" y="610" type="line"/>
    </contour>
    <contour>
      <point x="906" y="639" type="curve"/>
      <point x="876" y="639" type="line"/>
      <point x="876" y="631" type="line" smooth="yes"/>
      <point x="859" y="281"/>
      <point x="839" y="156"/>
      <point x="809" y="125" type="curve" smooth="yes"/>
      <point x="799" y="114"/>
      <point x="788" y="112"/>
      <point x="769" y="113" type="curve" smooth="yes"/>
      <point x="748" y="113"/>
      <point x="689" y="113"/>
      <point x="626" y="119" type="curve"/>
      <point x="632" y="110"/>
      <point x="635" y="98"/>
      <point x="636" y="89" type="curve"/>
      <point x="690" y="85"/>
      <point x="746" y="83"/>
      <point x="773" y="84" type="curve" smooth="yes"/>
      <point x="802" y="84"/>
      <point x="819" y="90"/>
      <point x="834" y="107" type="curve" smooth="yes"/>
      <point x="869" y="145"/>
      <point x="886" y="264"/>
      <point x="906" y="618" type="curve" smooth="yes"/>
      <point x="906" y="624"/>
      <point x="906" y="639"/>
    </contour>
    <contour>
      <point x="602" y="810" type="curve"/>
      <point x="573" y="810" type="line"/>
      <point x="567" y="492"/>
      <point x="550" y="235"/>
      <point x="318" y="114" type="curve"/>
      <point x="326" y="109"/>
      <point x="336" y="99"/>
      <point x="341" y="93" type="curve"/>
      <point x="576" y="222"/>
      <point x="595" y="480"/>
    </contour>
  </outline>
</glyph>
<glyph name="uni8FC1" format="2">
  <advance width="1000" height="1000"/>
  <unicode hex="8FC1"/>
  <note>
cid40056
</note>
  <outline>
    <contour>
      <point x="943" y="439" type="line"/>
      <point x="943" y="469" type="line"/>
      <point x="307" y="469" type="line"/>
      <point x="307" y="439" type="line"/>
    </contour>
    <contour>
      <point x="627" y="40" type="line"/>
      <point x="627" y="742" type="line"/>
      <point x="598" y="742" type="line"/>
      <point x="598" y="40" type="line"/>
    </contour>
    <contour>
      <point x="874" y="792" type="curve"/>
      <point x="843" y="814" type="line"/>
      <point x="733" y="774"/>
      <point x="512" y="743"/>
      <point x="329" y="724" type="curve"/>
      <point x="332" y="717"/>
      <point x="336" y="707"/>
      <point x="338" y="699" type="curve"/>
      <point x="525" y="718"/>
      <point x="745" y="749"/>
    </contour>
    <contour>
      <point x="217" y="91" type="line"/>
      <point x="246" y="91" type="line"/>
      <point x="246" y="431" type="line"/>
      <point x="54" y="431" type="line"/>
      <point x="54" y="402" type="line"/>
      <point x="217" y="402" type="line"/>
    </contour>
    <contour>
      <point x="246" y="105" type="curve"/>
      <point x="220" y="105" type="line"/>
      <point x="164" y="55"/>
      <point x="99" y="2"/>
      <point x="49" y="-34" type="curve"/>
      <point x="69" y="-63" type="line"/>
      <point x="123" y="-18"/>
      <point x="180" y="30"/>
      <point x="232" y="78" type="curve"/>
      <point x="295" y="-3"/>
      <point x="392" y="-45"/>
      <point x="530" y="-50" type="curve" smooth="yes"/>
      <point x="632" y="-53"/>
      <point x="844" y="-51"/>
      <point x="942" y="-48" type="curve"/>
      <point x="944" y="-38"/>
      <point x="949" y="-24"/>
      <point x="954" y="-17" type="curve"/>
      <point x="852" y="-22"/>
      <point x="629" y="-25"/>
      <point x="528" y="-21" type="curve" smooth="yes"/>
      <point x="401" y="-17"/>
      <point x="300" y="24"/>
    </contour>
    <contour>
      <point x="95" y="805" type="curve"/>
      <point x="74" y="787" type="line"/>
      <point x="144" y="743"/>
      <point x="222" y="675"/>
      <point x="256" y="625" type="curve"/>
      <point x="279" y="645" type="line"/>
      <point x="243" y="695"/>
      <point x="166" y="762"/>
    </contour>
  </outline>
</glyph>
<glyph name="uni8FC7" format="2">
  <advance width="1000"/>
  <unicode hex="8FC7"/>
  <note>
cid40074
</note>
  <outline>
    <contour>
      <point x="95" y="805" type="curve"/>
      <point x="74" y="787" type="line"/>
      <point x="144" y="743"/>
      <point x="222" y="675"/>
      <point x="256" y="625" type="curve"/>
      <point x="279" y="645" type="line"/>
      <point x="243" y="695"/>
      <point x="166" y="762"/>
    </contour>
    <contour>
      <point x="246" y="80" type="line"/>
      <point x="246" y="431" type="line"/>
      <point x="57" y="431" type="line"/>
      <point x="57" y="402" type="line"/>
      <point x="217" y="402" type="line"/>
      <point x="217" y="80" type="line"/>
    </contour>
    <contour>
      <point x="917" y="613" type="line"/>
      <point x="917" y="642" type="line"/>
      <point x="330" y="642" type="line"/>
      <point x="330" y="613" type="line"/>
    </contour>
    <contour>
      <point x="763" y="149" type="curve" smooth="yes"/>
      <point x="763" y="830" type="line"/>
      <point x="732" y="830" type="line"/>
      <point x="732" y="148" type="line" smooth="yes"/>
      <point x="732" y="130"/>
      <point x="725" y="125"/>
      <point x="706" y="123" type="curve" smooth="yes"/>
      <point x="687" y="122"/>
      <point x="620" y="122"/>
      <point x="538" y="124" type="curve"/>
      <point x="543" y="114"/>
      <point x="549" y="101"/>
      <point x="551" y="92" type="curve"/>
      <point x="646" y="92"/>
      <point x="700" y="92"/>
      <point x="725" y="98" type="curve" smooth="yes"/>
      <point x="751" y="104"/>
      <point x="763" y="116"/>
    </contour>
    <contour>
      <point x="424" y="498" type="curve"/>
      <point x="399" y="486" type="line"/>
      <point x="453" y="429"/>
      <point x="512" y="345"/>
      <point x="542" y="284" type="curve"/>
      <point x="567" y="299" type="line"/>
      <point x="535" y="360"/>
      <point x="476" y="442"/>
    </contour>
    <contour>
      <point x="246" y="103" type="curve"/>
      <point x="220" y="103" type="line"/>
      <point x="164" y="54"/>
      <point x="99" y="1"/>
      <point x="49" y="-35" type="curve"/>
      <point x="68" y="-63" type="line"/>
      <point x="123" y="-19"/>
      <point x="180" y="28"/>
      <point x="232" y="75" type="curve"/>
      <point x="295" y="-4"/>
      <point x="392" y="-46"/>
      <point x="530" y="-51" type="curve" smooth="yes"/>
      <point x="632" y="-54"/>
      <point x="844" y="-52"/>
      <point x="942" y="-49" type="curve"/>
      <point x="943" y="-39"/>
      <point x="949" y="-25"/>
      <point x="953" y="-18" type="curve"/>
      <point x="851" y="-23"/>
      <point x="629" y="-25"/>
      <point x="528" y="-22" type="curve" smooth="yes"/>
      <point x="401" y="-17"/>
      <point x="300" y="23"/>
    </contour>
  </outline>
</glyph>
<glyph name="uni8FD0" format="2">
  <advance width="1000" height="1000"/>
  <unicode hex="8FD0"/>
  <note>
cid40094
</note>
  <outline>
    <contour>
      <point x="871" y="735" type="line"/>
      <point x="871" y="765" type="line"/>
      <point x="377" y="765" type="line"/>
      <point x="377" y="735" type="line"/>
    </contour>
    <contour>
      <point x="950" y="490" type="line"/>
      <point x="950" y="520" type="line"/>
      <point x="314" y="520" type="line"/>
      <point x="314" y="490" type="line"/>
    </contour>
    <contour>
      <point x="580" y="495" type="curve"/>
      <point x="548" y="505" type="line"/>
      <point x="516" y="401"/>
      <point x="456" y="246"/>
      <point x="409" y="157" type="curve"/>
      <point x="434" y="147" type="line"/>
      <point x="482" y="236"/>
      <point x="540" y="385"/>
    </contour>
    <contour>
      <point x="323" y="162" type="curve"/>
      <point x="328" y="131" type="line"/>
      <point x="465" y="141"/>
      <point x="678" y="159"/>
      <point x="881" y="177" type="curve"/>
      <point x="881" y="206" type="line"/>
      <point x="671" y="188"/>
      <point x="454" y="171"/>
    </contour>
    <contour>
      <point x="736" y="399" type="curve"/>
      <point x="713" y="385" type="line"/>
      <point x="797" y="293"/>
      <point x="884" y="166"/>
      <point x="919" y="83" type="curve"/>
      <point x="944" y="100" type="line"/>
      <point x="909" y="181"/>
      <point x="820" y="307"/>
    </contour>
    <contour>
      <point x="217" y="91" type="line"/>
      <point x="246" y="91" type="line"/>
      <point x="246" y="431" type="line"/>
      <point x="54" y="431" type="line"/>
      <point x="54" y="402" type="line"/>
      <point x="217" y="402" type="line"/>
    </contour>
    <contour>
      <point x="246" y="105" type="curve"/>
      <point x="220" y="105" type="line"/>
      <point x="164" y="55"/>
      <point x="99" y="2"/>
      <point x="49" y="-34" type="curve"/>
      <point x="69" y="-63" type="line"/>
      <point x="123" y="-18"/>
      <point x="180" y="30"/>
      <point x="232" y="78" type="curve"/>
      <point x="295" y="-3"/>
      <point x="392" y="-45"/>
      <point x="530" y="-50" type="curve" smooth="yes"/>
      <point x="632" y="-53"/>
      <point x="844" y="-51"/>
      <point x="942" y="-48" type="curve"/>
      <point x="944" y="-38"/>
      <point x="949" y="-24"/>
      <point x="954" y="-17" type="curve"/>
      <point x="852" y="-22"/>
      <point x="629" y="-25"/>
      <point x="528" y="-21" type="curve" smooth="yes"/>
      <point x="401" y="-17"/>
      <point x="300" y="24"/>
    </contour>
    <contour>
      <point x="95" y="805" type="curve"/>
      <point x="74" y="787" type="line"/>
      <point x="144" y="743"/>
      <point x="222" y="675"/>
      <point x="256" y="625" type="curve"/>
      <point x="279" y="645" type="line"/>
      <point x="243" y="695"/>
      <point x="166" y="762"/>
    </contour>
  </outline>
</glyph>
<glyph name="uni8FD8" format="2">
  <advance width="1000"/>
  <unicode hex="8FD8"/>
  <note>
cid40120
</note>
  <outline>
    <contour>
      <point x="916" y="753" type="line"/>
      <point x="320" y="753" type="line"/>
      <point x="320" y="723" type="line"/>
      <point x="916" y="723" type="line"/>
    </contour>
    <contour>
      <point x="694" y="546" type="curve"/>
      <point x="675" y="528" type="line"/>
      <point x="763" y="466"/>
      <point x="853" y="382"/>
      <point x="910" y="311" type="curve"/>
      <point x="932" y="332" type="line"/>
      <point x="874" y="403"/>
      <point x="782" y="486"/>
    </contour>
    <contour>
      <point x="710" y="733" type="curve"/>
      <point x="682" y="745" type="line"/>
      <point x="599" y="578"/>
      <point x="459" y="432"/>
      <point x="291" y="337" type="curve"/>
      <point x="297" y="331"/>
      <point x="305" y="320"/>
      <point x="309" y="311" type="curve"/>
      <point x="483" y="412"/>
      <point x="627" y="564"/>
    </contour>
    <contour>
      <point x="627" y="613" type="line"/>
      <point x="598" y="583" type="line"/>
      <point x="598" y="55" type="line"/>
      <point x="627" y="55" type="line"/>
      <point x="627" y="612" type="line"/>
    </contour>
    <contour>
      <point x="217" y="91" type="line"/>
      <point x="246" y="91" type="line"/>
      <point x="246" y="431" type="line"/>
      <point x="54" y="431" type="line"/>
      <point x="54" y="402" type="line"/>
      <point x="217" y="402" type="line"/>
    </contour>
    <contour>
      <point x="246" y="105" type="curve"/>
      <point x="220" y="105" type="line"/>
      <point x="164" y="55"/>
      <point x="99" y="2"/>
      <point x="49" y="-34" type="curve"/>
      <point x="69" y="-63" type="line"/>
      <point x="123" y="-18"/>
      <point x="180" y="30"/>
      <point x="232" y="78" type="curve"/>
      <point x="295" y="-3"/>
      <point x="392" y="-45"/>
      <point x="530" y="-50" type="curve" smooth="yes"/>
      <point x="632" y="-53"/>
      <point x="844" y="-51"/>
      <point x="942" y="-48" type="curve"/>
      <point x="944" y="-38"/>
      <point x="949" y="-24"/>
      <point x="954" y="-17" type="curve"/>
      <point x="852" y="-22"/>
      <point x="629" y="-25"/>
      <point x="528" y="-21" type="curve" smooth="yes"/>
      <point x="401" y="-17"/>
      <point x="300" y="24"/>
    </contour>
    <contour>
      <point x="95" y="805" type="curve"/>
      <point x="74" y="787" type="line"/>
      <point x="144" y="743"/>
      <point x="222" y="675"/>
      <point x="256" y="625" type="curve"/>
      <point x="279" y="645" type="line"/>
      <point x="243" y="695"/>
      <point x="166" y="762"/>
    </contour>
  </outline>
</glyph>
<glyph name="uni8FD9" format="2">
  <advance width="1000"/>
  <unicode hex="8FD9"/>
  <note>
cid40121
</note>
  <outline>
    <contour>
      <point x="637" y="646" type="line"/>
      <point x="637" y="831" type="line"/>
      <point x="608" y="831" type="line"/>
      <point x="608" y="646" type="line"/>
    </contour>
    <contour>
      <point x="946" y="631" type="line"/>
      <point x="946" y="660" type="line"/>
      <point x="308" y="660" type="line"/>
      <point x="308" y="631" type="line"/>
    </contour>
    <contour>
      <point x="848" y="645" type="curve"/>
      <point x="816" y="652" type="line"/>
      <point x="733" y="375"/>
      <point x="595" y="207"/>
      <point x="295" y="111" type="curve"/>
      <point x="303" y="104"/>
      <point x="315" y="91"/>
      <point x="320" y="85" type="curve"/>
      <point x="618" y="189"/>
      <point x="760" y="358"/>
    </contour>
    <contour>
      <point x="428" y="651" type="curve"/>
      <point x="399" y="643" type="line"/>
      <point x="484" y="367"/>
      <point x="635" y="167"/>
      <point x="929" y="85" type="curve"/>
      <point x="935" y="93"/>
      <point x="945" y="105"/>
      <point x="953" y="112" type="curve"/>
      <point x="660" y="186"/>
      <point x="509" y="385"/>
    </contour>
    <contour>
      <point x="217" y="91" type="line"/>
      <point x="246" y="91" type="line"/>
      <point x="246" y="431" type="line"/>
      <point x="54" y="431" type="line"/>
      <point x="54" y="402" type="line"/>
      <point x="217" y="402" type="line"/>
    </contour>
    <contour>
      <point x="246" y="105" type="curve"/>
      <point x="220" y="105" type="line"/>
      <point x="164" y="55"/>
      <point x="99" y="2"/>
      <point x="49" y="-34" type="curve"/>
      <point x="69" y="-63" type="line"/>
      <point x="123" y="-18"/>
      <point x="180" y="30"/>
      <point x="232" y="78" type="curve"/>
      <point x="295" y="-3"/>
      <point x="392" y="-45"/>
      <point x="530" y="-50" type="curve" smooth="yes"/>
      <point x="632" y="-53"/>
      <point x="844" y="-51"/>
      <point x="942" y="-48" type="curve"/>
      <point x="944" y="-38"/>
      <point x="949" y="-24"/>
      <point x="954" y="-17" type="curve"/>
      <point x="852" y="-22"/>
      <point x="629" y="-25"/>
      <point x="528" y="-21" type="curve" smooth="yes"/>
      <point x="401" y="-17"/>
      <point x="300" y="24"/>
    </contour>
    <contour>
      <point x="95" y="805" type="curve"/>
      <point x="74" y="787" type="line"/>
      <point x="144" y="743"/>
      <point x="222" y="675"/>
      <point x="256" y="625" type="curve"/>
      <point x="279" y="645" type="line"/>
      <point x="243" y="695"/>
      <point x="166" y="762"/>
    </contour>
  </outline>
</glyph>
<glyph name="uni8FE9" format="2">
  <advance width="1000" height="1000"/>
  <unicode hex="8FE9"/>
  <note>
cid62865
</note>
  <outline>
    <contour>
      <point x="662" y="104" type="curve" smooth="yes"/>
      <point x="662" y="601" type="line"/>
      <point x="632" y="601" type="line"/>
      <point x="632" y="103" type="line" smooth="yes"/>
      <point x="632" y="89"/>
      <point x="628" y="85"/>
      <point x="614" y="84" type="curve" smooth="yes"/>
      <point x="597" y="83"/>
      <point x="546" y="82"/>
      <point x="480" y="84" type="curve"/>
      <point x="485" y="75"/>
      <point x="491" y="62"/>
      <point x="493" y="53" type="curve"/>
      <point x="564" y="53"/>
      <point x="610" y="52"/>
      <point x="632" y="58" type="curve" smooth="yes"/>
      <point x="654" y="65"/>
      <point x="662" y="76"/>
    </contour>
    <contour>
      <point x="507" y="822" type="curve"/>
      <point x="477" y="829" type="line"/>
      <point x="439" y="705"/>
      <point x="378" y="582"/>
      <point x="303" y="501" type="curve"/>
      <point x="312" y="497"/>
      <point x="326" y="488"/>
      <point x="330" y="484" type="curve"/>
      <point x="402" y="568"/>
      <point x="465" y="692"/>
    </contour>
    <contour>
      <point x="502" y="488" type="curve"/>
      <point x="473" y="495" type="line"/>
      <point x="439" y="383"/>
      <point x="387" y="274"/>
      <point x="323" y="199" type="curve"/>
      <point x="330" y="195"/>
      <point x="344" y="186"/>
      <point x="349" y="182" type="curve"/>
      <point x="411" y="259"/>
      <point x="466" y="372"/>
    </contour>
    <contour>
      <point x="803" y="494" type="curve"/>
      <point x="775" y="485" type="line"/>
      <point x="838" y="388"/>
      <point x="897" y="257"/>
      <point x="916" y="176" type="curve"/>
      <point x="945" y="186" type="line"/>
      <point x="926" y="268"/>
      <point x="866" y="397"/>
    </contour>
    <contour>
      <point x="921" y="651" type="line"/>
      <point x="921" y="680" type="line"/>
      <point x="423" y="680" type="line"/>
      <point x="423" y="651" type="line"/>
    </contour>
    <contour>
      <point x="923" y="682" type="line"/>
      <point x="916" y="680" type="line"/>
      <point x="911" y="680" type="line"/>
      <point x="911" y="671" type="line"/>
      <point x="901" y="619"/>
      <point x="883" y="559"/>
      <point x="865" y="516" type="curve"/>
      <point x="891" y="508" type="line"/>
      <point x="910" y="552"/>
      <point x="929" y="616"/>
      <point x="942" y="674" type="curve"/>
    </contour>
    <contour>
      <point x="217" y="91" type="line"/>
      <point x="246" y="91" type="line"/>
      <point x="246" y="431" type="line"/>
      <point x="54" y="431" type="line"/>
      <point x="54" y="402" type="line"/>
      <point x="217" y="402" type="line"/>
    </contour>
    <contour>
      <point x="246" y="105" type="curve"/>
      <point x="220" y="105" type="line"/>
      <point x="164" y="55"/>
      <point x="99" y="2"/>
      <point x="49" y="-34" type="curve"/>
      <point x="69" y="-63" type="line"/>
      <point x="123" y="-18"/>
      <point x="180" y="30"/>
      <point x="232" y="78" type="curve"/>
      <point x="295" y="-3"/>
      <point x="392" y="-45"/>
      <point x="530" y="-50" type="curve" smooth="yes"/>
      <point x="632" y="-53"/>
      <point x="844" y="-51"/>
      <point x="942" y="-48" type="curve"/>
      <point x="944" y="-38"/>
      <point x="949" y="-24"/>
      <point x="954" y="-17" type="curve"/>
      <point x="852" y="-22"/>
      <point x="629" y="-25"/>
      <point x="528" y="-21" type="curve" smooth="yes"/>
      <point x="401" y="-17"/>
      <point x="300" y="24"/>
    </contour>
    <contour>
      <point x="95" y="805" type="curve"/>
      <point x="74" y="787" type="line"/>
      <point x="144" y="743"/>
      <point x="222" y="675"/>
      <point x="256" y="625" type="curve"/>
      <point x="279" y="645" type="line"/>
      <point x="243" y="695"/>
      <point x="166" y="762"/>
    </contour>
  </outline>
</glyph>
<glyph name="uni8FF9" format="2">
  <advance width="1000" height="1000"/>
  <unicode hex="8FF9"/>
  <note>
cid40196
</note>
  <outline>
    <contour>
      <point x="825" y="514" type="curve"/>
      <point x="799" y="504" type="line"/>
      <point x="856" y="418"/>
      <point x="909" y="303"/>
      <point x="924" y="230" type="curve"/>
      <point x="953" y="242" type="line"/>
      <point x="936" y="314"/>
      <point x="882" y="428"/>
    </contour>
    <contour>
      <point x="950" y="631" type="line"/>
      <point x="950" y="661" type="line"/>
      <point x="331" y="661" type="line"/>
      <point x="331" y="631" type="line"/>
    </contour>
    <contour>
      <point x="648" y="646" type="line"/>
      <point x="648" y="831" type="line"/>
      <point x="619" y="831" type="line"/>
      <point x="619" y="646" type="line"/>
    </contour>
    <contour>
      <point x="569" y="523" type="curve" smooth="yes"/>
      <point x="569" y="649" type="line"/>
      <point x="539" y="649" type="line"/>
      <point x="539" y="523" type="line" smooth="yes"/>
      <point x="539" y="380"/>
      <point x="525" y="207"/>
      <point x="352" y="69" type="curve"/>
      <point x="359" y="65"/>
      <point x="370" y="56"/>
      <point x="375" y="49" type="curve"/>
      <point x="551" y="192"/>
      <point x="569" y="371"/>
    </contour>
    <contour>
      <point x="741" y="99" type="curve" smooth="yes"/>
      <point x="741" y="649" type="line"/>
      <point x="712" y="649" type="line"/>
      <point x="712" y="98" type="line" smooth="yes"/>
      <point x="712" y="86"/>
      <point x="708" y="82"/>
      <point x="695" y="82" type="curve" smooth="yes"/>
      <point x="682" y="82"/>
      <point x="640" y="81"/>
      <point x="586" y="82" type="curve"/>
      <point x="591" y="74"/>
      <point x="597" y="62"/>
      <point x="599" y="54" type="curve"/>
      <point x="662" y="54"/>
      <point x="697" y="54"/>
      <point x="716" y="59" type="curve" smooth="yes"/>
      <point x="734" y="65"/>
      <point x="741" y="75"/>
    </contour>
    <contour>
      <point x="438" y="514" type="curve"/>
      <point x="409" y="520" type="line"/>
      <point x="381" y="418"/>
      <point x="335" y="320"/>
      <point x="279" y="252" type="curve"/>
      <point x="286" y="248"/>
      <point x="299" y="238"/>
      <point x="304" y="233" type="curve"/>
      <point x="360" y="304"/>
      <point x="408" y="407"/>
    </contour>
    <contour>
      <point x="196" y="91" type="line"/>
      <point x="226" y="91" type="line"/>
      <point x="226" y="431" type="line"/>
      <point x="54" y="431" type="line"/>
      <point x="54" y="402" type="line"/>
      <point x="196" y="402" type="line"/>
    </contour>
    <contour>
      <point x="226" y="105" type="curve"/>
      <point x="199" y="105" type="line"/>
      <point x="149" y="55"/>
      <point x="91" y="2"/>
      <point x="45" y="-35" type="curve"/>
      <point x="66" y="-63" type="line"/>
      <point x="115" y="-18"/>
      <point x="165" y="30"/>
      <point x="213" y="77" type="curve"/>
      <point x="278" y="-4"/>
      <point x="379" y="-45"/>
      <point x="523" y="-50" type="curve" smooth="yes"/>
      <point x="625" y="-53"/>
      <point x="841" y="-51"/>
      <point x="940" y="-48" type="curve"/>
      <point x="942" y="-38"/>
      <point x="947" y="-24"/>
      <point x="952" y="-17" type="curve"/>
      <point x="849" y="-22"/>
      <point x="623" y="-25"/>
      <point x="521" y="-21" type="curve" smooth="yes"/>
      <point x="388" y="-16"/>
      <point x="282" y="23"/>
    </contour>
    <contour>
      <point x="92" y="806" type="curve"/>
      <point x="70" y="790" type="line"/>
      <point x="135" y="742"/>
      <point x="205" y="670"/>
      <point x="235" y="619" type="curve"/>
      <point x="259" y="637" type="line"/>
      <point x="229" y="688"/>
      <point x="158" y="759"/>
    </contour>
  </outline>
</glyph>
<glyph name="uni900D" format="2">
  <advance width="1000" height="1000"/>
  <unicode hex="900D"/>
  <note>
cid40248
</note>
  <outline>
    <contour>
      <point x="643" y="570" type="line"/>
      <point x="643" y="830" type="line"/>
      <point x="613" y="830" type="line"/>
      <point x="613" y="570" type="line"/>
    </contour>
    <contour>
      <point x="867" y="96" type="curve" smooth="yes"/>
      <point x="867" y="588" type="line"/>
      <point x="391" y="588" type="line"/>
      <point x="391" y="50" type="line"/>
      <point x="421" y="50" type="line"/>
      <point x="421" y="559" type="line"/>
      <point x="837" y="559" type="line"/>
      <point x="837" y="96" type="line" smooth="yes"/>
      <point x="837" y="83"/>
      <point x="833" y="80"/>
      <point x="819" y="79" type="curve" smooth="yes"/>
      <point x="805" y="79"/>
      <point x="758" y="78"/>
      <point x="699" y="80" type="curve"/>
      <point x="704" y="71"/>
      <point x="709" y="59"/>
      <point x="711" y="51" type="curve"/>
      <point x="781" y="51"/>
      <point x="821" y="51"/>
      <point x="841" y="57" type="curve" smooth="yes"/>
      <point x="861" y="63"/>
      <point x="867" y="74"/>
    </contour>
    <contour>
      <point x="389" y="800" type="curve"/>
      <point x="364" y="789" type="line"/>
      <point x="407" y="737"/>
      <point x="450" y="667"/>
      <point x="469" y="618" type="curve"/>
      <point x="496" y="630" type="line"/>
      <point x="476" y="679"/>
      <point x="432" y="749"/>
    </contour>
    <contour>
      <point x="894" y="786" type="curve"/>
      <point x="866" y="800" type="line"/>
      <point x="836" y="745"/>
      <point x="788" y="672"/>
      <point x="749" y="624" type="curve"/>
      <point x="773" y="612" type="line"/>
      <point x="812" y="660"/>
      <point x="859" y="727"/>
    </contour>
    <contour>
      <point x="857" y="406" type="line"/>
      <point x="857" y="435" type="line"/>
      <point x="403" y="435" type="line"/>
      <point x="403" y="406" type="line"/>
    </contour>
    <contour>
      <point x="854" y="249" type="line"/>
      <point x="854" y="278" type="line"/>
      <point x="400" y="278" type="line"/>
      <point x="400" y="249" type="line"/>
    </contour>
    <contour>
      <point x="217" y="91" type="line"/>
      <point x="246" y="91" type="line"/>
      <point x="246" y="431" type="line"/>
      <point x="54" y="431" type="line"/>
      <point x="54" y="402" type="line"/>
      <point x="217" y="402" type="line"/>
    </contour>
    <contour>
      <point x="246" y="105" type="curve"/>
      <point x="220" y="105" type="line"/>
      <point x="164" y="55"/>
      <point x="99" y="2"/>
      <point x="49" y="-34" type="curve"/>
      <point x="69" y="-63" type="line"/>
      <point x="123" y="-18"/>
      <point x="180" y="30"/>
      <point x="232" y="78" type="curve"/>
      <point x="295" y="-3"/>
      <point x="392" y="-45"/>
      <point x="530" y="-50" type="curve" smooth="yes"/>
      <point x="632" y="-53"/>
      <point x="844" y="-51"/>
      <point x="942" y="-48" type="curve"/>
      <point x="944" y="-38"/>
      <point x="949" y="-24"/>
      <point x="954" y="-17" type="curve"/>
      <point x="852" y="-22"/>
      <point x="629" y="-25"/>
      <point x="528" y="-21" type="curve" smooth="yes"/>
      <point x="401" y="-17"/>
      <point x="300" y="24"/>
    </contour>
    <contour>
      <point x="95" y="805" type="curve"/>
      <point x="74" y="787" type="line"/>
      <point x="144" y="743"/>
      <point x="222" y="675"/>
      <point x="256" y="625" type="curve"/>
      <point x="279" y="645" type="line"/>
      <point x="243" y="695"/>
      <point x="166" y="762"/>
    </contour>
  </outline>
</glyph>
<glyph name="uni9012" format="2">
  <advance width="1000" height="1000"/>
  <unicode hex="9012"/>
  <note>
cid40263
</note>
  <outline>
    <contour>
      <point x="906" y="331" type="line"/>
      <point x="906" y="360" type="line"/>
      <point x="362" y="360" type="line"/>
      <point x="362" y="331" type="line"/>
    </contour>
    <contour>
      <point x="922" y="360" type="curve"/>
      <point x="892" y="360" type="line"/>
      <point x="892" y="354" type="line"/>
      <point x="878" y="202"/>
      <point x="869" y="158"/>
      <point x="857" y="145" type="curve" smooth="yes"/>
      <point x="851" y="138"/>
      <point x="843" y="137"/>
      <point x="828" y="137" type="curve" smooth="yes"/>
      <point x="816" y="137"/>
      <point x="778" y="137"/>
      <point x="738" y="141" type="curve"/>
      <point x="743" y="132"/>
      <point x="746" y="120"/>
      <point x="747" y="113" type="curve"/>
      <point x="781" y="110"/>
      <point x="817" y="109"/>
      <point x="834" y="109" type="curve" smooth="yes"/>
      <point x="856" y="109"/>
      <point x="867" y="114"/>
      <point x="878" y="124" type="curve" smooth="yes"/>
      <point x="896" y="142"/>
      <point x="906" y="186"/>
      <point x="921" y="342" type="curve"/>
      <point x="922" y="350"/>
      <point x="922" y="360"/>
    </contour>
    <contour>
      <point x="885" y="493" type="line"/>
      <point x="885" y="694" type="line"/>
      <point x="346" y="694" type="line"/>
      <point x="346" y="665" type="line"/>
      <point x="856" y="665" type="line"/>
      <point x="856" y="522" type="line"/>
      <point x="396" y="522" type="line"/>
      <point x="396" y="493" type="line"/>
    </contour>
    <contour>
      <point x="414" y="522" type="curve"/>
      <point x="384" y="522" type="line"/>
      <point x="373" y="449"/>
      <point x="353" y="356"/>
      <point x="337" y="298" type="curve"/>
      <point x="367" y="293" type="line"/>
      <point x="382" y="350"/>
      <point x="401" y="444"/>
    </contour>
    <contour>
      <point x="627" y="346" type="curve"/>
      <point x="598" y="355" type="line"/>
      <point x="541" y="255"/>
      <point x="431" y="158"/>
      <point x="312" y="105" type="curve"/>
      <point x="319" y="99"/>
      <point x="328" y="89"/>
      <point x="332" y="83" type="curve"/>
      <point x="453" y="137"/>
      <point x="567" y="239"/>
    </contour>
    <contour>
      <point x="634" y="47" type="line"/>
      <point x="634" y="684" type="line"/>
      <point x="605" y="684" type="line"/>
      <point x="605" y="47" type="line"/>
    </contour>
    <contour>
      <point x="459" y="831" type="curve"/>
      <point x="434" y="821" type="line"/>
      <point x="461" y="780"/>
      <point x="489" y="724"/>
      <point x="502" y="689" type="curve"/>
      <point x="527" y="701" type="line"/>
      <point x="515" y="735"/>
      <point x="486" y="790"/>
    </contour>
    <contour>
      <point x="814" y="818" type="curve"/>
      <point x="787" y="831" type="line"/>
      <point x="770" y="793"/>
      <point x="736" y="735"/>
      <point x="711" y="700" type="curve"/>
      <point x="734" y="687" type="line"/>
      <point x="760" y="722"/>
      <point x="789" y="772"/>
    </contour>
    <contour>
      <point x="217" y="91" type="line"/>
      <point x="246" y="91" type="line"/>
      <point x="246" y="431" type="line"/>
      <point x="54" y="431" type="line"/>
      <point x="54" y="402" type="line"/>
      <point x="217" y="402" type="line"/>
    </contour>
    <contour>
      <point x="246" y="105" type="curve"/>
      <point x="220" y="105" type="line"/>
      <point x="164" y="55"/>
      <point x="99" y="2"/>
      <point x="49" y="-34" type="curve"/>
      <point x="69" y="-63" type="line"/>
      <point x="123" y="-18"/>
      <point x="180" y="30"/>
      <point x="232" y="78" type="curve"/>
      <point x="295" y="-3"/>
      <point x="392" y="-45"/>
      <point x="530" y="-50" type="curve" smooth="yes"/>
      <point x="632" y="-53"/>
      <point x="844" y="-51"/>
      <point x="942" y="-48" type="curve"/>
      <point x="944" y="-38"/>
      <point x="949" y="-24"/>
      <point x="954" y="-17" type="curve"/>
      <point x="852" y="-22"/>
      <point x="629" y="-25"/>
      <point x="528" y="-21" type="curve" smooth="yes"/>
      <point x="401" y="-17"/>
      <point x="300" y="24"/>
    </contour>
    <contour>
      <point x="95" y="805" type="curve"/>
      <point x="74" y="787" type="line"/>
      <point x="144" y="743"/>
      <point x="222" y="675"/>
      <point x="256" y="625" type="curve"/>
      <point x="279" y="645" type="line"/>
      <point x="243" y="695"/>
      <point x="166" y="762"/>
    </contour>
  </outline>
</glyph>
<glyph name="uni903E" format="2">
  <advance width="1000" height="1000"/>
  <unicode hex="903E"/>
  <note>
cid40379
</note>
  <outline>
    <contour>
      <point x="613" y="797" type="curve"/>
      <point x="688" y="696"/>
      <point x="820" y="589"/>
      <point x="935" y="523" type="curve"/>
      <point x="940" y="529"/>
      <point x="948" y="541"/>
      <point x="955" y="547" type="curve"/>
      <point x="839" y="608"/>
      <point x="705" y="717"/>
      <point x="626" y="826" type="curve"/>
      <point x="596" y="826" type="line"/>
      <point x="534" y="721"/>
      <point x="409" y="608"/>
      <point x="282" y="538" type="curve"/>
      <point x="288" y="532"/>
      <point x="296" y="523"/>
      <point x="300" y="516" type="curve"/>
      <point x="428" y="589"/>
      <point x="549" y="701"/>
    </contour>
    <contour>
      <point x="772" y="565" type="line"/>
      <point x="772" y="594" type="line"/>
      <point x="463" y="594" type="line"/>
      <point x="463" y="565" type="line"/>
    </contour>
    <contour>
      <point x="733" y="170" type="line"/>
      <point x="733" y="474" type="line"/>
      <point x="703" y="474" type="line"/>
      <point x="703" y="170" type="line"/>
    </contour>
    <contour>
      <point x="885" y="92" type="curve" smooth="yes"/>
      <point x="885" y="507" type="line"/>
      <point x="854" y="507" type="line"/>
      <point x="854" y="91" type="line" smooth="yes"/>
      <point x="854" y="81"/>
      <point x="851" y="79"/>
      <point x="839" y="78" type="curve" smooth="yes"/>
      <point x="828" y="78"/>
      <point x="792" y="77"/>
      <point x="746" y="79" type="curve"/>
      <point x="752" y="70"/>
      <point x="757" y="57"/>
      <point x="759" y="49" type="curve"/>
      <point x="814" y="49"/>
      <point x="845" y="49"/>
      <point x="863" y="55" type="curve" smooth="yes"/>
      <point x="879" y="60"/>
      <point x="885" y="70"/>
    </contour>
    <contour>
      <point x="601" y="89" type="curve" smooth="yes"/>
      <point x="601" y="491" type="line"/>
      <point x="353" y="491" type="line"/>
      <point x="353" y="48" type="line"/>
      <point x="382" y="48" type="line"/>
      <point x="382" y="462" type="line"/>
      <point x="572" y="462" type="line"/>
      <point x="572" y="88" type="line" smooth="yes"/>
      <point x="572" y="79"/>
      <point x="569" y="77"/>
      <point x="559" y="77" type="curve" smooth="yes"/>
      <point x="549" y="76"/>
      <point x="519" y="76"/>
      <point x="479" y="77" type="curve"/>
      <point x="484" y="69"/>
      <point x="489" y="57"/>
      <point x="491" y="49" type="curve"/>
      <point x="538" y="49"/>
      <point x="566" y="49"/>
      <point x="581" y="55" type="curve" smooth="yes"/>
      <point x="596" y="60"/>
      <point x="601" y="70"/>
    </contour>
    <contour>
      <point x="586" y="338" type="line"/>
      <point x="586" y="368" type="line"/>
      <point x="370" y="368" type="line"/>
      <point x="370" y="338" type="line"/>
    </contour>
    <contour>
      <point x="584" y="211" type="line"/>
      <point x="584" y="240" type="line"/>
      <point x="368" y="240" type="line"/>
      <point x="368" y="211" type="line"/>
    </contour>
    <contour>
      <point x="196" y="91" type="line"/>
      <point x="226" y="91" type="line"/>
      <point x="226" y="431" type="line"/>
      <point x="54" y="431" type="line"/>
      <point x="54" y="402" type="line"/>
      <point x="196" y="402" type="line"/>
    </contour>
    <contour>
      <point x="226" y="105" type="curve"/>
      <point x="199" y="105" type="line"/>
      <point x="149" y="55"/>
      <point x="91" y="2"/>
      <point x="45" y="-35" type="curve"/>
      <point x="66" y="-63" type="line"/>
      <point x="115" y="-18"/>
      <point x="165" y="30"/>
      <point x="213" y="77" type="curve"/>
      <point x="278" y="-4"/>
      <point x="379" y="-45"/>
      <point x="523" y="-50" type="curve" smooth="yes"/>
      <point x="625" y="-53"/>
      <point x="841" y="-51"/>
      <point x="940" y="-48" type="curve"/>
      <point x="942" y="-38"/>
      <point x="947" y="-24"/>
      <point x="952" y="-17" type="curve"/>
      <point x="849" y="-22"/>
      <point x="623" y="-25"/>
      <point x="521" y="-21" type="curve" smooth="yes"/>
      <point x="388" y="-16"/>
      <point x="282" y="23"/>
    </contour>
    <contour>
      <point x="92" y="806" type="curve"/>
      <point x="70" y="790" type="line"/>
      <point x="135" y="742"/>
      <point x="205" y="670"/>
      <point x="235" y="619" type="curve"/>
      <point x="259" y="637" type="line"/>
      <point x="229" y="688"/>
      <point x="158" y="759"/>
    </contour>
  </outline>
</glyph>
<glyph name="uni90BB" format="2">
  <advance width="1000" height="1000"/>
  <unicode hex="90BB"/>
  <note>
cid40677
</note>
  <outline>
    <contour>
      <point x="323" y="817" type="line"/>
      <point x="323" y="827" type="line"/>
      <point x="308" y="827" type="line"/>
      <point x="255" y="725"/>
      <point x="159" y="604"/>
      <point x="29" y="505" type="curve"/>
      <point x="35" y="502"/>
      <point x="45" y="494"/>
      <point x="50" y="488" type="curve"/>
      <point x="182" y="590"/>
      <point x="277" y="710"/>
      <point x="333" y="809" type="curve"/>
      <point x="333" y="817" type="line"/>
    </contour>
    <contour>
      <point x="337" y="827" type="curve"/>
      <point x="310" y="827" type="line"/>
      <point x="310" y="806" type="line"/>
      <point x="318" y="806" type="line"/>
      <point x="401" y="723"/>
      <point x="499" y="611"/>
      <point x="553" y="538" type="curve"/>
      <point x="576" y="561" type="line"/>
      <point x="522" y="632"/>
      <point x="420" y="743"/>
    </contour>
    <contour>
      <point x="924" y="747" type="line"/>
      <point x="924" y="776" type="line"/>
      <point x="615" y="776" type="line"/>
      <point x="615" y="-71" type="line"/>
      <point x="644" y="-71" type="line"/>
      <point x="644" y="747" type="line"/>
    </contour>
    <contour>
      <point x="927" y="778" type="line"/>
      <point x="921" y="776" type="line"/>
      <point x="916" y="776" type="line"/>
      <point x="916" y="770" type="line"/>
      <point x="871" y="681"/>
      <point x="804" y="560"/>
      <point x="735" y="451" type="curve"/>
      <point x="869" y="354"/>
      <point x="911" y="276"/>
      <point x="911" y="204" type="curve" smooth="yes"/>
      <point x="912" y="165"/>
      <point x="903" y="130"/>
      <point x="875" y="114" type="curve" smooth="yes"/>
      <point x="860" y="106"/>
      <point x="841" y="101"/>
      <point x="820" y="99" type="curve" smooth="yes"/>
      <point x="793" y="97"/>
      <point x="753" y="98"/>
      <point x="712" y="102" type="curve"/>
      <point x="719" y="92"/>
      <point x="723" y="80"/>
      <point x="724" y="71" type="curve"/>
      <point x="757" y="68"/>
      <point x="797" y="68"/>
      <point x="828" y="71" type="curve" smooth="yes"/>
      <point x="854" y="74"/>
      <point x="877" y="80"/>
      <point x="894" y="90" type="curve" smooth="yes"/>
      <point x="929" y="111"/>
      <point x="941" y="155"/>
      <point x="941" y="204" type="curve" smooth="yes"/>
      <point x="941" y="280"/>
      <point x="903" y="360"/>
      <point x="773" y="457" type="curve"/>
      <point x="832" y="553"/>
      <point x="898" y="669"/>
      <point x="948" y="763" type="curve"/>
    </contour>
    <contour>
      <point x="203" y="175" type="curve"/>
      <point x="179" y="157" type="line"/>
      <point x="267" y="88"/>
      <point x="366" y="-5"/>
      <point x="420" y="-68" type="curve"/>
      <point x="443" y="-48" type="line"/>
      <point x="388" y="15"/>
      <point x="289" y="107"/>
    </contour>
    <contour>
      <point x="505" y="328" type="line"/>
      <point x="505" y="358" type="line"/>
      <point x="109" y="358" type="line"/>
      <point x="109" y="328" type="line"/>
    </contour>
    <contour>
      <point x="509" y="360" type="line"/>
      <point x="502" y="358" type="line"/>
      <point x="496" y="358" type="line"/>
      <point x="496" y="349" type="line"/>
      <point x="451" y="263"/>
      <point x="365" y="146"/>
      <point x="299" y="83" type="curve"/>
      <point x="306" y="78"/>
      <point x="315" y="70"/>
      <point x="321" y="63" type="curve"/>
      <point x="387" y="126"/>
      <point x="479" y="252"/>
      <point x="530" y="349" type="curve"/>
    </contour>
    <contour>
      <point x="262" y="593" type="curve"/>
      <point x="240" y="575" type="line"/>
      <point x="299" y="533"/>
      <point x="369" y="471"/>
      <point x="402" y="430" type="curve"/>
      <point x="425" y="453" type="line"/>
      <point x="391" y="492"/>
      <point x="322" y="552"/>
    </contour>
  </outline>
</glyph>
<glyph name="uni949F" format="2">
  <advance width="1000" height="1000"/>
  <unicode hex="949F"/>
  <note>
cid42608
</note>
  <outline>
    <contour>
      <point x="920" y="202" type="line"/>
      <point x="920" y="609" type="line"/>
      <point x="455" y="609" type="line"/>
      <point x="455" y="198" type="line"/>
      <point x="484" y="198" type="line"/>
      <point x="484" y="579" type="line"/>
      <point x="891" y="579" type="line"/>
      <point x="891" y="202" type="line"/>
    </contour>
    <contour>
      <point x="701" y="-70" type="line"/>
      <point x="701" y="829" type="line"/>
      <point x="672" y="829" type="line"/>
      <point x="672" y="-70" type="line"/>
    </contour>
    <contour>
      <point x="911" y="259" type="line"/>
      <point x="911" y="288" type="line"/>
      <point x="469" y="288" type="line"/>
      <point x="469" y="259" type="line"/>
    </contour>
    <contour>
      <point x="218" y="830" type="curve"/>
      <point x="189" y="836" type="line"/>
      <point x="164" y="726"/>
      <point x="107" y="614"/>
      <point x="40" y="545" type="curve"/>
      <point x="48" y="540"/>
      <point x="57" y="531"/>
      <point x="62" y="524" type="curve"/>
      <point x="131" y="596"/>
      <point x="191" y="714"/>
    </contour>
    <contour>
      <point x="418" y="682" type="line"/>
      <point x="418" y="712" type="line"/>
      <point x="163" y="712" type="line"/>
      <point x="147" y="682" type="line"/>
    </contour>
    <contour>
      <point x="394" y="513" type="line"/>
      <point x="394" y="542" type="line"/>
      <point x="106" y="542" type="line"/>
      <point x="106" y="513" type="line"/>
    </contour>
    <contour>
      <point x="425" y="310" type="line"/>
      <point x="425" y="339" type="line"/>
      <point x="51" y="339" type="line"/>
      <point x="51" y="310" type="line"/>
    </contour>
    <contour>
      <point x="257" y="15" type="line"/>
      <point x="257" y="524" type="line"/>
      <point x="228" y="524" type="line"/>
      <point x="228" y="5" type="line"/>
    </contour>
    <contour>
      <point x="131" y="-15" type="curve"/>
      <point x="146" y="-41" type="line"/>
      <point x="215" y="-17"/>
      <point x="321" y="22"/>
      <point x="422" y="60" type="curve"/>
      <point x="416" y="87" type="line"/>
      <point x="308" y="47"/>
      <point x="199" y="8"/>
    </contour>
  </outline>
</glyph>
<glyph name="uni94A2" format="2">
  <advance width="1000" height="1000"/>
  <unicode hex="94A2"/>
  <note>
cid42611
</note>
  <outline>
    <contour>
      <point x="547" y="584" type="curve"/>
      <point x="523" y="570" type="line"/>
      <point x="636" y="435"/>
      <point x="757" y="256"/>
      <point x="817" y="137" type="curve"/>
      <point x="842" y="153" type="line"/>
      <point x="781" y="272"/>
      <point x="659" y="449"/>
    </contour>
    <contour>
      <point x="820" y="695" type="curve"/>
      <point x="790" y="701" type="line"/>
      <point x="738" y="453"/>
      <point x="631" y="208"/>
      <point x="512" y="64" type="curve"/>
      <point x="520" y="59"/>
      <point x="533" y="50"/>
      <point x="539" y="45" type="curve"/>
      <point x="656" y="194"/>
      <point x="765" y="445"/>
    </contour>
    <contour>
      <point x="208" y="830" type="curve"/>
      <point x="179" y="836" type="line"/>
      <point x="154" y="725"/>
      <point x="101" y="613"/>
      <point x="40" y="545" type="curve"/>
      <point x="48" y="540"/>
      <point x="57" y="531"/>
      <point x="62" y="524" type="curve"/>
      <point x="125" y="595"/>
      <point x="181" y="713"/>
    </contour>
    <contour>
      <point x="408" y="682" type="line"/>
      <point x="408" y="712" type="line"/>
      <point x="153" y="712" type="line"/>
      <point x="137" y="682" type="line"/>
    </contour>
    <contour>
      <point x="374" y="513" type="line"/>
      <point x="374" y="542" type="line"/>
      <point x="106" y="542" type="line"/>
      <point x="106" y="513" type="line"/>
    </contour>
    <contour>
      <point x="405" y="310" type="line"/>
      <point x="405" y="339" type="line"/>
      <point x="51" y="339" type="line"/>
      <point x="51" y="310" type="line"/>
    </contour>
    <contour>
      <point x="247" y="15" type="line"/>
      <point x="247" y="524" type="line"/>
      <point x="218" y="524" type="line"/>
      <point x="218" y="5" type="line"/>
    </contour>
    <contour>
      <point x="131" y="-15" type="curve"/>
      <point x="146" y="-41" type="line"/>
      <point x="219" y="-16"/>
      <point x="317" y="20"/>
      <point x="402" y="53" type="curve"/>
      <point x="396" y="80" type="line"/>
      <point x="304" y="46"/>
      <point x="202" y="9"/>
    </contour>
    <contour>
      <point x="901" y="751" type="line"/>
      <point x="901" y="780" type="line"/>
      <point x="441" y="780" type="line"/>
      <point x="441" y="-70" type="line"/>
      <point x="471" y="-70" type="line"/>
      <point x="471" y="751" type="line"/>
    </contour>
    <contour>
      <point x="918" y="-17" type="curve" smooth="yes"/>
      <point x="918" y="780" type="line"/>
      <point x="889" y="780" type="line"/>
      <point x="889" y="-18" type="line" smooth="yes"/>
      <point x="889" y="-35"/>
      <point x="883" y="-40"/>
      <point x="867" y="-41" type="curve" smooth="yes"/>
      <point x="851" y="-42"/>
      <point x="796" y="-43"/>
      <point x="730" y="-41" type="curve"/>
      <point x="735" y="-50"/>
      <point x="740" y="-64"/>
      <point x="743" y="-71" type="curve"/>
      <point x="821" y="-71"/>
      <point x="866" y="-71"/>
      <point x="887" y="-65" type="curve" smooth="yes"/>
      <point x="909" y="-60"/>
      <point x="918" y="-47"/>
    </contour>
  </outline>
</glyph>
<glyph name="uni94C1" format="2">
  <advance width="1000" height="1000"/>
  <unicode hex="94C1"/>
  <note>
cid42642
</note>
  <outline>
    <contour>
      <point x="952" y="356" type="line"/>
      <point x="952" y="385" type="line"/>
      <point x="430" y="385" type="line"/>
      <point x="430" y="356" type="line"/>
    </contour>
    <contour>
      <point x="917" y="613" type="line"/>
      <point x="917" y="642" type="line"/>
      <point x="520" y="642" type="line"/>
      <point x="514" y="613" type="line"/>
    </contour>
    <contour>
      <point x="570" y="784" type="curve"/>
      <point x="539" y="789" type="line"/>
      <point x="518" y="663"/>
      <point x="481" y="540"/>
      <point x="427" y="457" type="curve"/>
      <point x="435" y="453"/>
      <point x="449" y="444"/>
      <point x="454" y="440" type="curve"/>
      <point x="507" y="525"/>
      <point x="546" y="652"/>
    </contour>
    <contour>
      <point x="703" y="536" type="curve" smooth="yes"/>
      <point x="703" y="831" type="line"/>
      <point x="673" y="831" type="line"/>
      <point x="673" y="536" type="line" smooth="yes"/>
      <point x="673" y="357"/>
      <point x="669" y="113"/>
      <point x="398" y="-50" type="curve"/>
      <point x="405" y="-56"/>
      <point x="415" y="-65"/>
      <point x="419" y="-72" type="curve"/>
      <point x="693" y="98"/>
      <point x="703" y="349"/>
    </contour>
    <contour>
      <point x="721" y="368" type="curve"/>
      <point x="693" y="365" type="line"/>
      <point x="712" y="245"/>
      <point x="749" y="23"/>
      <point x="933" y="-71" type="curve"/>
      <point x="939" y="-65"/>
      <point x="949" y="-55"/>
      <point x="957" y="-50" type="curve"/>
      <point x="776" y="38"/>
      <point x="737" y="254"/>
    </contour>
    <contour>
      <point x="218" y="830" type="curve"/>
      <point x="189" y="836" type="line"/>
      <point x="164" y="726"/>
      <point x="107" y="614"/>
      <point x="40" y="545" type="curve"/>
      <point x="48" y="540"/>
      <point x="57" y="531"/>
      <point x="62" y="524" type="curve"/>
      <point x="131" y="596"/>
      <point x="191" y="714"/>
    </contour>
    <contour>
      <point x="418" y="682" type="line"/>
      <point x="418" y="712" type="line"/>
      <point x="163" y="712" type="line"/>
      <point x="147" y="682" type="line"/>
    </contour>
    <contour>
      <point x="394" y="513" type="line"/>
      <point x="394" y="542" type="line"/>
      <point x="106" y="542" type="line"/>
      <point x="106" y="513" type="line"/>
    </contour>
    <contour>
      <point x="415" y="310" type="line"/>
      <point x="415" y="339" type="line"/>
      <point x="51" y="339" type="line"/>
      <point x="51" y="310" type="line"/>
    </contour>
    <contour>
      <point x="257" y="15" type="line"/>
      <point x="257" y="524" type="line"/>
      <point x="228" y="524" type="line"/>
      <point x="228" y="5" type="line"/>
    </contour>
    <contour>
      <point x="131" y="-15" type="curve"/>
      <point x="146" y="-41" type="line"/>
      <point x="215" y="-17"/>
      <point x="321" y="22"/>
      <point x="422" y="60" type="curve"/>
      <point x="416" y="87" type="line"/>
      <point x="308" y="47"/>
      <point x="199" y="8"/>
    </contour>
  </outline>
</glyph>
<glyph name="uni94DC" format="2">
  <advance width="1000" height="1000"/>
  <unicode hex="94DC"/>
  <note>
cid42669
</note>
  <outline>
    <contour>
      <point x="208" y="830" type="curve"/>
      <point x="179" y="836" type="line"/>
      <point x="154" y="725"/>
      <point x="101" y="613"/>
      <point x="40" y="545" type="curve"/>
      <point x="48" y="540"/>
      <point x="57" y="531"/>
      <point x="62" y="524" type="curve"/>
      <point x="125" y="595"/>
      <point x="181" y="713"/>
    </contour>
    <contour>
      <point x="408" y="682" type="line"/>
      <point x="408" y="712" type="line"/>
      <point x="153" y="712" type="line"/>
      <point x="137" y="682" type="line"/>
    </contour>
    <contour>
      <point x="374" y="513" type="line"/>
      <point x="374" y="542" type="line"/>
      <point x="106" y="542" type="line"/>
      <point x="106" y="513" type="line"/>
    </contour>
    <contour>
      <point x="405" y="310" type="line"/>
      <point x="405" y="339" type="line"/>
      <point x="51" y="339" type="line"/>
      <point x="51" y="310" type="line"/>
    </contour>
    <contour>
      <point x="247" y="15" type="line"/>
      <point x="247" y="524" type="line"/>
      <point x="218" y="524" type="line"/>
      <point x="218" y="5" type="line"/>
    </contour>
    <contour>
      <point x="131" y="-15" type="curve"/>
      <point x="146" y="-41" type="line"/>
      <point x="219" y="-16"/>
      <point x="317" y="20"/>
      <point x="402" y="53" type="curve"/>
      <point x="396" y="80" type="line"/>
      <point x="304" y="46"/>
      <point x="202" y="9"/>
    </contour>
    <contour>
      <point x="908" y="751" type="line"/>
      <point x="908" y="780" type="line"/>
      <point x="444" y="780" type="line"/>
      <point x="444" y="-70" type="line"/>
      <point x="473" y="-70" type="line"/>
      <point x="473" y="751" type="line"/>
    </contour>
    <contour>
      <point x="919" y="-21" type="curve" smooth="yes"/>
      <point x="919" y="780" type="line"/>
      <point x="890" y="780" type="line"/>
      <point x="890" y="-22" type="line" smooth="yes"/>
      <point x="890" y="-36"/>
      <point x="884" y="-41"/>
      <point x="871" y="-41" type="curve" smooth="yes"/>
      <point x="859" y="-42"/>
      <point x="816" y="-42"/>
      <point x="763" y="-41" type="curve"/>
      <point x="768" y="-50"/>
      <point x="772" y="-63"/>
      <point x="774" y="-69" type="curve"/>
      <point x="839" y="-70"/>
      <point x="873" y="-69"/>
      <point x="893" y="-65" type="curve" smooth="yes"/>
      <point x="912" y="-59"/>
      <point x="919" y="-48"/>
    </contour>
    <contour>
      <point x="834" y="584" type="line"/>
      <point x="834" y="614" type="line"/>
      <point x="526" y="614" type="line"/>
      <point x="526" y="584" type="line"/>
    </contour>
    <contour>
      <point x="589" y="106" type="line"/>
      <point x="589" y="455" type="line"/>
      <point x="560" y="455" type="line"/>
      <point x="560" y="106" type="line"/>
    </contour>
    <contour>
      <point x="794" y="176" type="line"/>
      <point x="794" y="455" type="line"/>
      <point x="580" y="455" type="line"/>
      <point x="580" y="425" type="line"/>
      <point x="765" y="425" type="line"/>
      <point x="765" y="205" type="line"/>
      <point x="580" y="205" type="line"/>
      <point x="580" y="176" type="line"/>
    </contour>
  </outline>
</glyph>
<glyph name="uni94F6" format="2">
  <advance width="1000" height="1000"/>
  <unicode hex="94F6"/>
  <note>
cid42695
</note>
  <outline>
    <contour>
      <point x="493" y="-16" type="line"/>
      <point x="493" y="782" type="line"/>
      <point x="464" y="782" type="line"/>
      <point x="464" y="-24" type="line"/>
    </contour>
    <contour>
      <point x="892" y="364" type="line"/>
      <point x="892" y="782" type="line"/>
      <point x="476" y="782" type="line"/>
      <point x="476" y="753" type="line"/>
      <point x="863" y="753" type="line"/>
      <point x="863" y="393" type="line"/>
      <point x="476" y="393" type="line"/>
      <point x="476" y="364" type="line"/>
    </contour>
    <contour>
      <point x="875" y="560" type="line"/>
      <point x="875" y="589" type="line"/>
      <point x="477" y="589" type="line"/>
      <point x="477" y="560" type="line"/>
    </contour>
    <contour>
      <point x="356" y="-32" type="curve"/>
      <point x="366" y="-61" type="line"/>
      <point x="464" y="-38"/>
      <point x="602" y="-6"/>
      <point x="734" y="26" type="curve"/>
      <point x="731" y="53" type="line"/>
      <point x="590" y="20"/>
      <point x="447" y="-13"/>
    </contour>
    <contour>
      <point x="661" y="381" type="curve"/>
      <point x="633" y="375" type="line"/>
      <point x="679" y="165"/>
      <point x="780" y="1"/>
      <point x="940" y="-71" type="curve"/>
      <point x="945" y="-63"/>
      <point x="955" y="-52"/>
      <point x="963" y="-45" type="curve"/>
      <point x="804" y="19"/>
      <point x="705" y="180"/>
    </contour>
    <contour>
      <point x="942" y="296" type="curve"/>
      <point x="919" y="316" type="line"/>
      <point x="868" y="272"/>
      <point x="778" y="212"/>
      <point x="716" y="177" type="curve"/>
      <point x="735" y="155" type="line"/>
      <point x="799" y="192"/>
      <point x="883" y="244"/>
    </contour>
    <contour>
      <point x="208" y="830" type="curve"/>
      <point x="179" y="836" type="line"/>
      <point x="154" y="725"/>
      <point x="101" y="613"/>
      <point x="40" y="545" type="curve"/>
      <point x="48" y="540"/>
      <point x="57" y="531"/>
      <point x="62" y="524" type="curve"/>
      <point x="125" y="595"/>
      <point x="181" y="713"/>
    </contour>
    <contour>
      <point x="408" y="682" type="line"/>
      <point x="408" y="712" type="line"/>
      <point x="153" y="712" type="line"/>
      <point x="137" y="682" type="line"/>
    </contour>
    <contour>
      <point x="384" y="513" type="line"/>
      <point x="384" y="542" type="line"/>
      <point x="106" y="542" type="line"/>
      <point x="106" y="513" type="line"/>
    </contour>
    <contour>
      <point x="415" y="310" type="line"/>
      <point x="415" y="339" type="line"/>
      <point x="51" y="339" type="line"/>
      <point x="51" y="310" type="line"/>
    </contour>
    <contour>
      <point x="247" y="15" type="line"/>
      <point x="247" y="524" type="line"/>
      <point x="218" y="524" type="line"/>
      <point x="218" y="5" type="line"/>
    </contour>
    <contour>
      <point x="131" y="-15" type="curve"/>
      <point x="146" y="-41" type="line"/>
      <point x="215" y="-16"/>
      <point x="316" y="21"/>
      <point x="407" y="55" type="curve"/>
      <point x="401" y="82" type="line"/>
      <point x="303" y="45"/>
      <point x="198" y="7"/>
    </contour>
  </outline>
</glyph>
<glyph name="uni952D" format="2">
  <advance width="1000" height="1000"/>
  <unicode hex="952D"/>
  <note>
cid42750
</note>
  <outline>
    <contour>
      <point x="916" y="474" type="line"/>
      <point x="916" y="504" type="line"/>
      <point x="443" y="504" type="line"/>
      <point x="443" y="474" type="line"/>
    </contour>
    <contour>
      <point x="910" y="249" type="line"/>
      <point x="910" y="278" type="line"/>
      <point x="675" y="278" type="line"/>
      <point x="675" y="249" type="line"/>
    </contour>
    <contour>
      <point x="690" y="681" type="line"/>
      <point x="690" y="831" type="line"/>
      <point x="661" y="831" type="line"/>
      <point x="661" y="681" type="line"/>
    </contour>
    <contour>
      <point x="690" y="-17" type="line"/>
      <point x="690" y="494" type="line"/>
      <point x="661" y="494" type="line"/>
      <point x="661" y="-17" type="line"/>
    </contour>
    <contour>
      <point x="938" y="549" type="line"/>
      <point x="938" y="697" type="line"/>
      <point x="421" y="697" type="line"/>
      <point x="421" y="549" type="line"/>
      <point x="450" y="549" type="line"/>
      <point x="450" y="668" type="line"/>
      <point x="909" y="668" type="line"/>
      <point x="909" y="549" type="line"/>
    </contour>
    <contour>
      <point x="536" y="354" type="curve"/>
      <point x="506" y="354" type="line"/>
      <point x="496" y="206"/>
      <point x="465" y="33"/>
      <point x="362" y="-52" type="curve"/>
      <point x="369" y="-56"/>
      <point x="380" y="-65"/>
      <point x="385" y="-70" type="curve"/>
      <point x="491" y="21"/>
      <point x="524" y="194"/>
    </contour>
    <contour>
      <point x="517" y="234" type="curve"/>
      <point x="493" y="224" type="line"/>
      <point x="543" y="-6"/>
      <point x="642" y="-53"/>
      <point x="798" y="-53" type="curve" smooth="yes"/>
      <point x="910" y="-53" type="line"/>
      <point x="945" y="-53" type="line"/>
      <point x="946" y="-45"/>
      <point x="952" y="-31"/>
      <point x="958" y="-23" type="curve"/>
      <point x="935" y="-23"/>
      <point x="814" y="-23"/>
      <point x="799" y="-23" type="curve" smooth="yes"/>
      <point x="661" y="-23"/>
      <point x="561" y="19"/>
    </contour>
    <contour>
      <point x="208" y="830" type="curve"/>
      <point x="179" y="836" type="line"/>
      <point x="154" y="725"/>
      <point x="101" y="613"/>
      <point x="40" y="545" type="curve"/>
      <point x="48" y="540"/>
      <point x="57" y="531"/>
      <point x="62" y="524" type="curve"/>
      <point x="125" y="595"/>
      <point x="181" y="713"/>
    </contour>
    <contour>
      <point x="398" y="682" type="line"/>
      <point x="398" y="712" type="line"/>
      <point x="153" y="712" type="line"/>
      <point x="137" y="682" type="line"/>
    </contour>
    <contour>
      <point x="374" y="513" type="line"/>
      <point x="374" y="542" type="line"/>
      <point x="106" y="542" type="line"/>
      <point x="106" y="513" type="line"/>
    </contour>
    <contour>
      <point x="395" y="310" type="line"/>
      <point x="395" y="339" type="line"/>
      <point x="51" y="339" type="line"/>
      <point x="51" y="310" type="line"/>
    </contour>
    <contour>
      <point x="247" y="15" type="line"/>
      <point x="247" y="524" type="line"/>
      <point x="218" y="524" type="line"/>
      <point x="218" y="5" type="line"/>
    </contour>
    <contour>
      <point x="131" y="-15" type="curve"/>
      <point x="146" y="-41" type="line"/>
      <point x="219" y="-16"/>
      <point x="317" y="20"/>
      <point x="402" y="53" type="curve"/>
      <point x="396" y="80" type="line"/>
      <point x="304" y="46"/>
      <point x="202" y="9"/>
    </contour>
  </outline>
</glyph>
<glyph name="uni9547" format="2">
  <advance width="1000" height="1000"/>
  <unicode hex="9547"/>
  <note>
cid42776
</note>
  <outline>
    <contour>
      <point x="932" y="702" type="line"/>
      <point x="932" y="731" type="line"/>
      <point x="438" y="731" type="line"/>
      <point x="438" y="702" type="line"/>
    </contour>
    <contour>
      <point x="949" y="124" type="line"/>
      <point x="949" y="153" type="line"/>
      <point x="404" y="153" type="line"/>
      <point x="404" y="124" type="line"/>
    </contour>
    <contour>
      <point x="694" y="597" type="line"/>
      <point x="694" y="831" type="line"/>
      <point x="664" y="831" type="line"/>
      <point x="664" y="597" type="line"/>
    </contour>
    <contour>
      <point x="613" y="86" type="curve"/>
      <point x="583" y="96" type="line"/>
      <point x="537" y="41"/>
      <point x="457" y="-10"/>
      <point x="384" y="-44" type="curve"/>
      <point x="392" y="-50"/>
      <point x="404" y="-63"/>
      <point x="408" y="-68" type="curve"/>
      <point x="479" y="-31"/>
      <point x="563" y="27"/>
    </contour>
    <contour>
      <point x="785" y="100" type="curve"/>
      <point x="760" y="85" type="line"/>
      <point x="821" y="39"/>
      <point x="896" y="-28"/>
      <point x="933" y="-70" type="curve"/>
      <point x="961" y="-52" type="line"/>
      <point x="923" y="-11"/>
      <point x="850" y="53"/>
    </contour>
    <contour>
      <point x="865" y="468" type="line"/>
      <point x="865" y="497" type="line"/>
      <point x="502" y="497" type="line"/>
      <point x="502" y="468" type="line"/>
    </contour>
    <contour>
      <point x="867" y="354" type="line"/>
      <point x="867" y="383" type="line"/>
      <point x="500" y="383" type="line"/>
      <point x="500" y="354" type="line"/>
    </contour>
    <contour>
      <point x="866" y="239" type="line"/>
      <point x="866" y="268" type="line"/>
      <point x="503" y="268" type="line"/>
      <point x="503" y="239" type="line"/>
    </contour>
    <contour>
      <point x="879" y="146" type="line"/>
      <point x="879" y="611" type="line"/>
      <point x="484" y="611" type="line"/>
      <point x="484" y="146" type="line"/>
      <point x="514" y="146" type="line"/>
      <point x="514" y="581" type="line"/>
      <point x="850" y="581" type="line"/>
      <point x="850" y="146" type="line"/>
    </contour>
    <contour>
      <point x="208" y="830" type="curve"/>
      <point x="179" y="836" type="line"/>
      <point x="154" y="725"/>
      <point x="101" y="613"/>
      <point x="40" y="545" type="curve"/>
      <point x="48" y="540"/>
      <point x="57" y="531"/>
      <point x="62" y="524" type="curve"/>
      <point x="125" y="595"/>
      <point x="181" y="713"/>
    </contour>
    <contour>
      <point x="398" y="682" type="line"/>
      <point x="398" y="712" type="line"/>
      <point x="153" y="712" type="line"/>
      <point x="137" y="682" type="line"/>
    </contour>
    <contour>
      <point x="374" y="513" type="line"/>
      <point x="374" y="542" type="line"/>
      <point x="106" y="542" type="line"/>
      <point x="106" y="513" type="line"/>
    </contour>
    <contour>
      <point x="395" y="310" type="line"/>
      <point x="395" y="339" type="line"/>
      <point x="51" y="339" type="line"/>
      <point x="51" y="310" type="line"/>
    </contour>
    <contour>
      <point x="247" y="15" type="line"/>
      <point x="247" y="524" type="line"/>
      <point x="218" y="524" type="line"/>
      <point x="218" y="5" type="line"/>
    </contour>
    <contour>
      <point x="131" y="-15" type="curve"/>
      <point x="146" y="-41" type="line"/>
      <point x="219" y="-16"/>
      <point x="317" y="20"/>
      <point x="402" y="53" type="curve"/>
      <point x="396" y="80" type="line"/>
      <point x="304" y="46"/>
      <point x="202" y="9"/>
    </contour>
  </outline>
</glyph>
<glyph name="uni957F" format="2">
  <advance width="1000"/>
  <unicode hex="957F"/>
  <note>
cid42842
</note>
  <outline>
    <contour>
      <point x="111" y="-34" type="curve"/>
      <point x="121" y="-63" type="line"/>
      <point x="240" y="-40"/>
      <point x="418" y="-7"/>
      <point x="584" y="26" type="curve"/>
      <point x="583" y="53" type="line"/>
      <point x="406" y="20"/>
      <point x="223" y="-15"/>
    </contour>
    <contour>
      <point x="293" y="-15" type="line"/>
      <point x="293" y="823" type="line"/>
      <point x="264" y="823" type="line"/>
      <point x="264" y="-20" type="line"/>
    </contour>
    <contour>
      <point x="939" y="395" type="line"/>
      <point x="939" y="425" type="line"/>
      <point x="61" y="425" type="line"/>
      <point x="61" y="395" type="line"/>
    </contour>
    <contour>
      <point x="815" y="794" type="curve"/>
      <point x="787" y="805" type="line"/>
      <point x="690" y="694"/>
      <point x="532" y="589"/>
      <point x="378" y="532" type="curve"/>
      <point x="386" y="526"/>
      <point x="397" y="514"/>
      <point x="401" y="507" type="curve"/>
      <point x="553" y="567"/>
      <point x="713" y="678"/>
    </contour>
    <contour>
      <point x="514" y="417" type="curve"/>
      <point x="488" y="408" type="line"/>
      <point x="561" y="157"/>
      <point x="721" y="-8"/>
      <point x="936" y="-74" type="curve"/>
      <point x="941" y="-65"/>
      <point x="949" y="-55"/>
      <point x="955" y="-49" type="curve"/>
      <point x="741" y="9"/>
      <point x="583" y="174"/>
    </contour>
  </outline>
</glyph>
<glyph name="uni95EE" format="2">
  <advance width="1000" height="1000"/>
  <unicode hex="95EE"/>
  <note>
cid43019
</note>
  <outline>
    <contour>
      <point x="140" y="621" type="line"/>
      <point x="111" y="621" type="line"/>
      <point x="111" y="-72" type="line"/>
      <point x="140" y="-72" type="line"/>
    </contour>
    <contour>
      <point x="148" y="812" type="curve"/>
      <point x="126" y="797" type="line"/>
      <point x="184" y="751"/>
      <point x="241" y="689"/>
      <point x="275" y="637" type="curve"/>
      <point x="297" y="654" type="line"/>
      <point x="262" y="707"/>
      <point x="205" y="768"/>
    </contour>
    <contour>
      <point x="876" y="768" type="line"/>
      <point x="364" y="768" type="line"/>
      <point x="364" y="738" type="line"/>
      <point x="876" y="738" type="line"/>
    </contour>
    <contour>
      <point x="888" y="768" type="line"/>
      <point x="858" y="768" type="line"/>
      <point x="858" y="-17" type="line" smooth="yes"/>
      <point x="858" y="-33"/>
      <point x="852" y="-38"/>
      <point x="835" y="-39" type="curve" smooth="yes"/>
      <point x="819" y="-40"/>
      <point x="760" y="-41"/>
      <point x="691" y="-39" type="curve"/>
      <point x="696" y="-48"/>
      <point x="702" y="-62"/>
      <point x="704" y="-70" type="curve"/>
      <point x="782" y="-71"/>
      <point x="831" y="-70"/>
      <point x="856" y="-64" type="curve" smooth="yes"/>
      <point x="879" y="-59"/>
      <point x="888" y="-46"/>
      <point x="888" y="-17" type="curve" smooth="yes"/>
    </contour>
    <contour>
      <point x="662" y="531" type="line"/>
      <point x="352" y="531" type="line"/>
      <point x="352" y="502" type="line"/>
      <point x="632" y="502" type="line"/>
      <point x="632" y="206" type="line"/>
      <point x="352" y="206" type="line"/>
      <point x="352" y="177" type="line"/>
      <point x="662" y="177" type="line"/>
    </contour>
    <contour>
      <point x="366" y="531" type="line"/>
      <point x="336" y="531" type="line"/>
      <point x="336" y="103" type="line"/>
      <point x="366" y="103" type="line"/>
    </contour>
  </outline>
</glyph>
<glyph name="uni95F4" format="2">
  <advance width="1000" height="1000"/>
  <unicode hex="95F4"/>
  <note>
cid43021
</note>
  <outline>
    <contour>
      <point x="140" y="-72" type="line"/>
      <point x="140" y="621" type="line"/>
      <point x="111" y="621" type="line"/>
      <point x="111" y="-72" type="line"/>
    </contour>
    <contour>
      <point x="148" y="811" type="curve"/>
      <point x="126" y="796" type="line"/>
      <point x="179" y="754"/>
      <point x="236" y="693"/>
      <point x="264" y="647" type="curve"/>
      <point x="288" y="664" type="line"/>
      <point x="258" y="710"/>
      <point x="200" y="771"/>
    </contour>
    <contour>
      <point x="876" y="738" type="line"/>
      <point x="876" y="768" type="line"/>
      <point x="364" y="768" type="line"/>
      <point x="364" y="738" type="line"/>
    </contour>
    <contour>
      <point x="888" y="-17" type="curve" smooth="yes"/>
      <point x="888" y="768" type="line"/>
      <point x="858" y="768" type="line"/>
      <point x="858" y="-17" type="line" smooth="yes"/>
      <point x="858" y="-33"/>
      <point x="852" y="-38"/>
      <point x="835" y="-39" type="curve" smooth="yes"/>
      <point x="819" y="-40"/>
      <point x="760" y="-41"/>
      <point x="691" y="-39" type="curve"/>
      <point x="696" y="-48"/>
      <point x="702" y="-62"/>
      <point x="704" y="-70" type="curve"/>
      <point x="782" y="-71"/>
      <point x="831" y="-70"/>
      <point x="856" y="-64" type="curve" smooth="yes"/>
      <point x="879" y="-59"/>
      <point x="888" y="-46"/>
    </contour>
    <contour>
      <point x="657" y="339" type="line"/>
      <point x="657" y="369" type="line"/>
      <point x="341" y="369" type="line"/>
      <point x="341" y="339" type="line"/>
    </contour>
    <contour>
      <point x="670" y="146" type="line"/>
      <point x="670" y="560" type="line"/>
      <point x="341" y="560" type="line"/>
      <point x="341" y="530" type="line"/>
      <point x="641" y="530" type="line"/>
      <point x="641" y="176" type="line"/>
      <point x="341" y="176" type="line"/>
      <point x="341" y="146" type="line"/>
    </contour>
    <contour>
      <point x="354" y="76" type="line"/>
      <point x="354" y="560" type="line"/>
      <point x="325" y="560" type="line"/>
      <point x="325" y="76" type="line"/>
    </contour>
  </outline>
</glyph>
